<?xml version="1.0" encoding="utf-8" standalone="no"?>
<!DOCTYPE svg PUBLIC "-//W3C//DTD SVG 1.1//EN"
  "http://www.w3.org/Graphics/SVG/1.1/DTD/svg11.dtd">
<svg xmlns:xlink="http://www.w3.org/1999/xlink" width="792pt" height="316.8pt" viewBox="0 0 792 316.8" xmlns="http://www.w3.org/2000/svg" version="1.1">
 <metadata>
  <rdf:RDF xmlns:dc="http://purl.org/dc/elements/1.1/" xmlns:cc="http://creativecommons.org/ns#" xmlns:rdf="http://www.w3.org/1999/02/22-rdf-syntax-ns#">
   <cc:Work>
    <dc:type rdf:resource="http://purl.org/dc/dcmitype/StillImage"/>
    <dc:format>image/svg+xml</dc:format>
   </cc:Work>
  </rdf:RDF>
 </metadata>
 <defs>
  <style type="text/css">*{stroke-linejoin: round; stroke-linecap: butt}</style>
 </defs>
 <g id="figure_1">
  <g id="patch_1">
   <path d="M 0 316.8 
L 792 316.8 
L 792 0 
L 0 0 
z
" style="fill: #ffffff"/>
  </g>
  <g id="axes_1">
   <g id="patch_2">
    <path d="M 10.8 88.46208 
L 711.216 88.46208 
L 711.216 49.44 
L 10.8 49.44 
z
" clip-path="url(#p1af17f7f89)" style="fill: #26405e; stroke: #26405e; stroke-linejoin: miter"/>
   </g>
   <g id="patch_3">
    <path d="M 10.8 156.75072 
L 711.216 156.75072 
L 711.216 88.46208 
L 10.8 88.46208 
z
" clip-path="url(#p1af17f7f89)" style="fill: #fbe2dc; stroke: #999999; stroke-width: 0.5; stroke-linejoin: miter"/>
   </g>
   <g id="patch_4">
    <path d="M 10.8 225.03936 
L 711.216 225.03936 
L 711.216 156.75072 
L 10.8 156.75072 
z
" clip-path="url(#p1af17f7f89)" style="fill: #fdf3c4; stroke: #999999; stroke-width: 0.5; stroke-linejoin: miter"/>
   </g>
   <g id="patch_5">
    <path d="M 10.8 293.328 
L 711.216 293.328 
L 711.216 225.03936 
L 10.8 225.03936 
z
" clip-path="url(#p1af17f7f89)" style="fill: #dde8f7; stroke: #999999; stroke-width: 0.5; stroke-linejoin: miter"/>
   </g>
   <g id="text_1">
    <!-- Environment -->
    <g style="fill: #ffffff" transform="translate(72.898865 71.549087) scale(0.1 -0.1)">
     <defs>
      <path id="DejaVuSans-Bold-28" d="M 588 4666 
L 3834 4666 
L 3834 3756 
L 1791 3756 
L 1791 2888 
L 3713 2888 
L 3713 1978 
L 1791 1978 
L 1791 909 
L 3903 909 
L 3903 0 
L 588 0 
L 588 4666 
z
" transform="scale(0.015625)"/>
      <path id="DejaVuSans-Bold-51" d="M 4056 2131 
L 4056 0 
L 2931 0 
L 2931 347 
L 2931 1631 
Q 2931 2084 2911 2256 
Q 2891 2428 2841 2509 
Q 2775 2619 2662 2680 
Q 2550 2741 2406 2741 
Q 2056 2741 1856 2470 
Q 1656 2200 1656 1722 
L 1656 0 
L 538 0 
L 538 3500 
L 1656 3500 
L 1656 2988 
Q 1909 3294 2193 3439 
Q 2478 3584 2822 3584 
Q 3428 3584 3742 3212 
Q 4056 2841 4056 2131 
z
" transform="scale(0.015625)"/>
      <path id="DejaVuSans-Bold-59" d="M 97 3500 
L 1216 3500 
L 2088 1081 
L 2956 3500 
L 4078 3500 
L 2700 0 
L 1472 0 
L 97 3500 
z
" transform="scale(0.015625)"/>
      <path id="DejaVuSans-Bold-4c" d="M 538 3500 
L 1656 3500 
L 1656 0 
L 538 0 
L 538 3500 
z
M 538 4863 
L 1656 4863 
L 1656 3950 
L 538 3950 
L 538 4863 
z
" transform="scale(0.015625)"/>
      <path id="DejaVuSans-Bold-55" d="M 3138 2547 
Q 2991 2616 2845 2648 
Q 2700 2681 2553 2681 
Q 2122 2681 1889 2404 
Q 1656 2128 1656 1613 
L 1656 0 
L 538 0 
L 538 3500 
L 1656 3500 
L 1656 2925 
Q 1872 3269 2151 3426 
Q 2431 3584 2822 3584 
Q 2878 3584 2943 3579 
Q 3009 3575 3134 3559 
L 3138 2547 
z
" transform="scale(0.015625)"/>
      <path id="DejaVuSans-Bold-52" d="M 2203 2784 
Q 1831 2784 1636 2517 
Q 1441 2250 1441 1747 
Q 1441 1244 1636 976 
Q 1831 709 2203 709 
Q 2569 709 2762 976 
Q 2956 1244 2956 1747 
Q 2956 2250 2762 2517 
Q 2569 2784 2203 2784 
z
M 2203 3584 
Q 3106 3584 3614 3096 
Q 4122 2609 4122 1747 
Q 4122 884 3614 396 
Q 3106 -91 2203 -91 
Q 1297 -91 786 396 
Q 275 884 275 1747 
Q 275 2609 786 3096 
Q 1297 3584 2203 3584 
z
" transform="scale(0.015625)"/>
      <path id="DejaVuSans-Bold-50" d="M 3781 2919 
Q 3994 3244 4286 3414 
Q 4578 3584 4928 3584 
Q 5531 3584 5847 3212 
Q 6163 2841 6163 2131 
L 6163 0 
L 5038 0 
L 5038 1825 
Q 5041 1866 5042 1909 
Q 5044 1953 5044 2034 
Q 5044 2406 4934 2573 
Q 4825 2741 4581 2741 
Q 4263 2741 4089 2478 
Q 3916 2216 3909 1719 
L 3909 0 
L 2784 0 
L 2784 1825 
Q 2784 2406 2684 2573 
Q 2584 2741 2328 2741 
Q 2006 2741 1831 2477 
Q 1656 2213 1656 1722 
L 1656 0 
L 531 0 
L 531 3500 
L 1656 3500 
L 1656 2988 
Q 1863 3284 2130 3434 
Q 2397 3584 2719 3584 
Q 3081 3584 3359 3409 
Q 3638 3234 3781 2919 
z
" transform="scale(0.015625)"/>
      <path id="DejaVuSans-Bold-48" d="M 4031 1759 
L 4031 1441 
L 1416 1441 
Q 1456 1047 1700 850 
Q 1944 653 2381 653 
Q 2734 653 3104 758 
Q 3475 863 3866 1075 
L 3866 213 
Q 3469 63 3072 -14 
Q 2675 -91 2278 -91 
Q 1328 -91 801 392 
Q 275 875 275 1747 
Q 275 2603 792 3093 
Q 1309 3584 2216 3584 
Q 3041 3584 3536 3087 
Q 4031 2591 4031 1759 
z
M 2881 2131 
Q 2881 2450 2695 2645 
Q 2509 2841 2209 2841 
Q 1884 2841 1681 2658 
Q 1478 2475 1428 2131 
L 2881 2131 
z
" transform="scale(0.015625)"/>
      <path id="DejaVuSans-Bold-57" d="M 1759 4494 
L 1759 3500 
L 2913 3500 
L 2913 2700 
L 1759 2700 
L 1759 1216 
Q 1759 972 1856 886 
Q 1953 800 2241 800 
L 2816 800 
L 2816 0 
L 1856 0 
Q 1194 0 917 276 
Q 641 553 641 1216 
L 641 2700 
L 84 2700 
L 84 3500 
L 641 3500 
L 641 4494 
L 1759 4494 
z
" transform="scale(0.015625)"/>
     </defs>
     <use xlink:href="#DejaVuSans-Bold-28"/>
     <use xlink:href="#DejaVuSans-Bold-51" transform="translate(68.3125 0)"/>
     <use xlink:href="#DejaVuSans-Bold-59" transform="translate(139.5 0)"/>
     <use xlink:href="#DejaVuSans-Bold-4c" transform="translate(204.6875 0)"/>
     <use xlink:href="#DejaVuSans-Bold-55" transform="translate(238.96875 0)"/>
     <use xlink:href="#DejaVuSans-Bold-52" transform="translate(288.28125 0)"/>
     <use xlink:href="#DejaVuSans-Bold-51" transform="translate(356.984375 0)"/>
     <use xlink:href="#DejaVuSans-Bold-50" transform="translate(428.171875 0)"/>
     <use xlink:href="#DejaVuSans-Bold-48" transform="translate(532.375 0)"/>
     <use xlink:href="#DejaVuSans-Bold-51" transform="translate(600.203125 0)"/>
     <use xlink:href="#DejaVuSans-Bold-57" transform="translate(671.390625 0)"/>
    </g>
   </g>
   <g id="text_2">
    <!-- Contradiction status -->
    <g style="fill: #ffffff" transform="translate(212.299232 71.549087) scale(0.1 -0.1)">
     <defs>
      <path id="DejaVuSans-Bold-26" d="M 4288 256 
Q 3956 84 3597 -3 
Q 3238 -91 2847 -91 
Q 1681 -91 1000 561 
Q 319 1213 319 2328 
Q 319 3447 1000 4098 
Q 1681 4750 2847 4750 
Q 3238 4750 3597 4662 
Q 3956 4575 4288 4403 
L 4288 3438 
Q 3953 3666 3628 3772 
Q 3303 3878 2944 3878 
Q 2300 3878 1931 3465 
Q 1563 3053 1563 2328 
Q 1563 1606 1931 1193 
Q 2300 781 2944 781 
Q 3303 781 3628 887 
Q 3953 994 4288 1222 
L 4288 256 
z
" transform="scale(0.015625)"/>
      <path id="DejaVuSans-Bold-44" d="M 2106 1575 
Q 1756 1575 1579 1456 
Q 1403 1338 1403 1106 
Q 1403 894 1545 773 
Q 1688 653 1941 653 
Q 2256 653 2472 879 
Q 2688 1106 2688 1447 
L 2688 1575 
L 2106 1575 
z
M 3816 1997 
L 3816 0 
L 2688 0 
L 2688 519 
Q 2463 200 2181 54 
Q 1900 -91 1497 -91 
Q 953 -91 614 226 
Q 275 544 275 1050 
Q 275 1666 698 1953 
Q 1122 2241 2028 2241 
L 2688 2241 
L 2688 2328 
Q 2688 2594 2478 2717 
Q 2269 2841 1825 2841 
Q 1466 2841 1156 2769 
Q 847 2697 581 2553 
L 581 3406 
Q 941 3494 1303 3539 
Q 1666 3584 2028 3584 
Q 2975 3584 3395 3211 
Q 3816 2838 3816 1997 
z
" transform="scale(0.015625)"/>
      <path id="DejaVuSans-Bold-47" d="M 2919 2988 
L 2919 4863 
L 4044 4863 
L 4044 0 
L 2919 0 
L 2919 506 
Q 2688 197 2409 53 
Q 2131 -91 1766 -91 
Q 1119 -91 703 423 
Q 288 938 288 1747 
Q 288 2556 703 3070 
Q 1119 3584 1766 3584 
Q 2128 3584 2408 3439 
Q 2688 3294 2919 2988 
z
M 2181 722 
Q 2541 722 2730 984 
Q 2919 1247 2919 1747 
Q 2919 2247 2730 2509 
Q 2541 2772 2181 2772 
Q 1825 2772 1636 2509 
Q 1447 2247 1447 1747 
Q 1447 1247 1636 984 
Q 1825 722 2181 722 
z
" transform="scale(0.015625)"/>
      <path id="DejaVuSans-Bold-46" d="M 3366 3391 
L 3366 2478 
Q 3138 2634 2908 2709 
Q 2678 2784 2431 2784 
Q 1963 2784 1702 2511 
Q 1441 2238 1441 1747 
Q 1441 1256 1702 982 
Q 1963 709 2431 709 
Q 2694 709 2930 787 
Q 3166 866 3366 1019 
L 3366 103 
Q 3103 6 2833 -42 
Q 2563 -91 2291 -91 
Q 1344 -91 809 395 
Q 275 881 275 1747 
Q 275 2613 809 3098 
Q 1344 3584 2291 3584 
Q 2566 3584 2833 3536 
Q 3100 3488 3366 3391 
z
" transform="scale(0.015625)"/>
      <path id="DejaVuSans-Bold-3" transform="scale(0.015625)"/>
      <path id="DejaVuSans-Bold-56" d="M 3272 3391 
L 3272 2541 
Q 2913 2691 2578 2766 
Q 2244 2841 1947 2841 
Q 1628 2841 1473 2761 
Q 1319 2681 1319 2516 
Q 1319 2381 1436 2309 
Q 1553 2238 1856 2203 
L 2053 2175 
Q 2913 2066 3209 1816 
Q 3506 1566 3506 1031 
Q 3506 472 3093 190 
Q 2681 -91 1863 -91 
Q 1516 -91 1145 -36 
Q 775 19 384 128 
L 384 978 
Q 719 816 1070 734 
Q 1422 653 1784 653 
Q 2113 653 2278 743 
Q 2444 834 2444 1013 
Q 2444 1163 2330 1236 
Q 2216 1309 1875 1350 
L 1678 1375 
Q 931 1469 631 1722 
Q 331 1975 331 2491 
Q 331 3047 712 3315 
Q 1094 3584 1881 3584 
Q 2191 3584 2531 3537 
Q 2872 3491 3272 3391 
z
" transform="scale(0.015625)"/>
      <path id="DejaVuSans-Bold-58" d="M 500 1363 
L 500 3500 
L 1625 3500 
L 1625 3150 
Q 1625 2866 1622 2436 
Q 1619 2006 1619 1863 
Q 1619 1441 1641 1255 
Q 1663 1069 1716 984 
Q 1784 875 1895 815 
Q 2006 756 2150 756 
Q 2500 756 2700 1025 
Q 2900 1294 2900 1772 
L 2900 3500 
L 4019 3500 
L 4019 0 
L 2900 0 
L 2900 506 
Q 2647 200 2364 54 
Q 2081 -91 1741 -91 
Q 1134 -91 817 281 
Q 500 653 500 1363 
z
" transform="scale(0.015625)"/>
     </defs>
     <use xlink:href="#DejaVuSans-Bold-26"/>
     <use xlink:href="#DejaVuSans-Bold-52" transform="translate(73.390625 0)"/>
     <use xlink:href="#DejaVuSans-Bold-51" transform="translate(142.09375 0)"/>
     <use xlink:href="#DejaVuSans-Bold-57" transform="translate(213.28125 0)"/>
     <use xlink:href="#DejaVuSans-Bold-55" transform="translate(261.078125 0)"/>
     <use xlink:href="#DejaVuSans-Bold-44" transform="translate(310.390625 0)"/>
     <use xlink:href="#DejaVuSans-Bold-47" transform="translate(377.875 0)"/>
     <use xlink:href="#DejaVuSans-Bold-4c" transform="translate(449.453125 0)"/>
     <use xlink:href="#DejaVuSans-Bold-46" transform="translate(483.734375 0)"/>
     <use xlink:href="#DejaVuSans-Bold-57" transform="translate(543.015625 0)"/>
     <use xlink:href="#DejaVuSans-Bold-4c" transform="translate(590.8125 0)"/>
     <use xlink:href="#DejaVuSans-Bold-52" transform="translate(625.09375 0)"/>
     <use xlink:href="#DejaVuSans-Bold-51" transform="translate(693.796875 0)"/>
     <use xlink:href="#DejaVuSans-Bold-3" transform="translate(764.984375 0)"/>
     <use xlink:href="#DejaVuSans-Bold-56" transform="translate(799.796875 0)"/>
     <use xlink:href="#DejaVuSans-Bold-57" transform="translate(859.3125 0)"/>
     <use xlink:href="#DejaVuSans-Bold-44" transform="translate(907.109375 0)"/>
     <use xlink:href="#DejaVuSans-Bold-57" transform="translate(974.59375 0)"/>
     <use xlink:href="#DejaVuSans-Bold-58" transform="translate(1022.390625 0)"/>
     <use xlink:href="#DejaVuSans-Bold-56" transform="translate(1093.578125 0)"/>
    </g>
   </g>
   <g id="text_3">
    <!-- What follows from the seed -->
    <g style="fill: #ffffff" transform="translate(360.220166 71.549087) scale(0.1 -0.1)">
     <defs>
      <path id="DejaVuSans-Bold-3a" d="M 191 4666 
L 1344 4666 
L 2150 1275 
L 2950 4666 
L 4109 4666 
L 4909 1275 
L 5716 4666 
L 6859 4666 
L 5759 0 
L 4372 0 
L 3525 3547 
L 2688 0 
L 1300 0 
L 191 4666 
z
" transform="scale(0.015625)"/>
      <path id="DejaVuSans-Bold-4b" d="M 4056 2131 
L 4056 0 
L 2931 0 
L 2931 347 
L 2931 1625 
Q 2931 2084 2911 2256 
Q 2891 2428 2841 2509 
Q 2775 2619 2662 2680 
Q 2550 2741 2406 2741 
Q 2056 2741 1856 2470 
Q 1656 2200 1656 1722 
L 1656 0 
L 538 0 
L 538 4863 
L 1656 4863 
L 1656 2988 
Q 1909 3294 2193 3439 
Q 2478 3584 2822 3584 
Q 3428 3584 3742 3212 
Q 4056 2841 4056 2131 
z
" transform="scale(0.015625)"/>
      <path id="DejaVuSans-Bold-49" d="M 2841 4863 
L 2841 4128 
L 2222 4128 
Q 1984 4128 1890 4042 
Q 1797 3956 1797 3744 
L 1797 3500 
L 2753 3500 
L 2753 2700 
L 1797 2700 
L 1797 0 
L 678 0 
L 678 2700 
L 122 2700 
L 122 3500 
L 678 3500 
L 678 3744 
Q 678 4316 997 4589 
Q 1316 4863 1984 4863 
L 2841 4863 
z
" transform="scale(0.015625)"/>
      <path id="DejaVuSans-Bold-4f" d="M 538 4863 
L 1656 4863 
L 1656 0 
L 538 0 
L 538 4863 
z
" transform="scale(0.015625)"/>
      <path id="DejaVuSans-Bold-5a" d="M 225 3500 
L 1313 3500 
L 1900 1088 
L 2491 3500 
L 3425 3500 
L 4013 1113 
L 4603 3500 
L 5691 3500 
L 4769 0 
L 3547 0 
L 2956 2406 
L 2369 0 
L 1147 0 
L 225 3500 
z
" transform="scale(0.015625)"/>
     </defs>
     <use xlink:href="#DejaVuSans-Bold-3a"/>
     <use xlink:href="#DejaVuSans-Bold-4b" transform="translate(110.296875 0)"/>
     <use xlink:href="#DejaVuSans-Bold-44" transform="translate(181.484375 0)"/>
     <use xlink:href="#DejaVuSans-Bold-57" transform="translate(248.96875 0)"/>
     <use xlink:href="#DejaVuSans-Bold-3" transform="translate(296.765625 0)"/>
     <use xlink:href="#DejaVuSans-Bold-49" transform="translate(331.578125 0)"/>
     <use xlink:href="#DejaVuSans-Bold-52" transform="translate(375.078125 0)"/>
     <use xlink:href="#DejaVuSans-Bold-4f" transform="translate(443.78125 0)"/>
     <use xlink:href="#DejaVuSans-Bold-4f" transform="translate(478.0625 0)"/>
     <use xlink:href="#DejaVuSans-Bold-52" transform="translate(512.34375 0)"/>
     <use xlink:href="#DejaVuSans-Bold-5a" transform="translate(581.046875 0)"/>
     <use xlink:href="#DejaVuSans-Bold-56" transform="translate(673.4375 0)"/>
     <use xlink:href="#DejaVuSans-Bold-3" transform="translate(732.953125 0)"/>
     <use xlink:href="#DejaVuSans-Bold-49" transform="translate(767.765625 0)"/>
     <use xlink:href="#DejaVuSans-Bold-55" transform="translate(811.265625 0)"/>
     <use xlink:href="#DejaVuSans-Bold-52" transform="translate(860.578125 0)"/>
     <use xlink:href="#DejaVuSans-Bold-50" transform="translate(929.28125 0)"/>
     <use xlink:href="#DejaVuSans-Bold-3" transform="translate(1033.484375 0)"/>
     <use xlink:href="#DejaVuSans-Bold-57" transform="translate(1068.296875 0)"/>
     <use xlink:href="#DejaVuSans-Bold-4b" transform="translate(1116.09375 0)"/>
     <use xlink:href="#DejaVuSans-Bold-48" transform="translate(1187.28125 0)"/>
     <use xlink:href="#DejaVuSans-Bold-3" transform="translate(1255.109375 0)"/>
     <use xlink:href="#DejaVuSans-Bold-56" transform="translate(1289.921875 0)"/>
     <use xlink:href="#DejaVuSans-Bold-48" transform="translate(1349.4375 0)"/>
     <use xlink:href="#DejaVuSans-Bold-48" transform="translate(1417.265625 0)"/>
     <use xlink:href="#DejaVuSans-Bold-47" transform="translate(1485.09375 0)"/>
    </g>
   </g>
   <g id="text_4">
    <!-- Generativity -->
    <g style="fill: #ffffff" transform="translate(592.15358 71.549087) scale(0.1 -0.1)">
     <defs>
      <path id="DejaVuSans-Bold-2a" d="M 4781 347 
Q 4331 128 3847 18 
Q 3363 -91 2847 -91 
Q 1681 -91 1000 561 
Q 319 1213 319 2328 
Q 319 3456 1012 4103 
Q 1706 4750 2913 4750 
Q 3378 4750 3804 4662 
Q 4231 4575 4609 4403 
L 4609 3438 
Q 4219 3659 3833 3768 
Q 3447 3878 3059 3878 
Q 2341 3878 1952 3476 
Q 1563 3075 1563 2328 
Q 1563 1588 1938 1184 
Q 2313 781 3003 781 
Q 3191 781 3352 804 
Q 3513 828 3641 878 
L 3641 1784 
L 2906 1784 
L 2906 2591 
L 4781 2591 
L 4781 347 
z
" transform="scale(0.015625)"/>
      <path id="DejaVuSans-Bold-5c" d="M 78 3500 
L 1197 3500 
L 2138 1125 
L 2938 3500 
L 4056 3500 
L 2584 -331 
Q 2363 -916 2067 -1148 
Q 1772 -1381 1288 -1381 
L 641 -1381 
L 641 -647 
L 991 -647 
Q 1275 -647 1404 -556 
Q 1534 -466 1606 -231 
L 1638 -134 
L 78 3500 
z
" transform="scale(0.015625)"/>
     </defs>
     <use xlink:href="#DejaVuSans-Bold-2a"/>
     <use xlink:href="#DejaVuSans-Bold-48" transform="translate(82.078125 0)"/>
     <use xlink:href="#DejaVuSans-Bold-51" transform="translate(149.90625 0)"/>
     <use xlink:href="#DejaVuSans-Bold-48" transform="translate(221.09375 0)"/>
     <use xlink:href="#DejaVuSans-Bold-55" transform="translate(288.921875 0)"/>
     <use xlink:href="#DejaVuSans-Bold-44" transform="translate(338.234375 0)"/>
     <use xlink:href="#DejaVuSans-Bold-57" transform="translate(405.71875 0)"/>
     <use xlink:href="#DejaVuSans-Bold-4c" transform="translate(453.515625 0)"/>
     <use xlink:href="#DejaVuSans-Bold-59" transform="translate(487.796875 0)"/>
     <use xlink:href="#DejaVuSans-Bold-4c" transform="translate(552.984375 0)"/>
     <use xlink:href="#DejaVuSans-Bold-57" transform="translate(587.265625 0)"/>
     <use xlink:href="#DejaVuSans-Bold-5c" transform="translate(635.0625 0)"/>
    </g>
   </g>
   <g id="text_5">
    <!-- Classical propositional logic -->
    <g style="fill: #1a1a1a" transform="translate(50.10531 124.81474) scale(0.085 -0.085)">
     <defs>
      <path id="DejaVuSans-26" d="M 4122 4306 
L 4122 3641 
Q 3803 3938 3442 4084 
Q 3081 4231 2675 4231 
Q 1875 4231 1450 3742 
Q 1025 3253 1025 2328 
Q 1025 1406 1450 917 
Q 1875 428 2675 428 
Q 3081 428 3442 575 
Q 3803 722 4122 1019 
L 4122 359 
Q 3791 134 3420 21 
Q 3050 -91 2638 -91 
Q 1578 -91 968 557 
Q 359 1206 359 2328 
Q 359 3453 968 4101 
Q 1578 4750 2638 4750 
Q 3056 4750 3426 4639 
Q 3797 4528 4122 4306 
z
" transform="scale(0.015625)"/>
      <path id="DejaVuSans-4f" d="M 603 4863 
L 1178 4863 
L 1178 0 
L 603 0 
L 603 4863 
z
" transform="scale(0.015625)"/>
      <path id="DejaVuSans-44" d="M 2194 1759 
Q 1497 1759 1228 1600 
Q 959 1441 959 1056 
Q 959 750 1161 570 
Q 1363 391 1709 391 
Q 2188 391 2477 730 
Q 2766 1069 2766 1631 
L 2766 1759 
L 2194 1759 
z
M 3341 1997 
L 3341 0 
L 2766 0 
L 2766 531 
Q 2569 213 2275 61 
Q 1981 -91 1556 -91 
Q 1019 -91 701 211 
Q 384 513 384 1019 
Q 384 1609 779 1909 
Q 1175 2209 1959 2209 
L 2766 2209 
L 2766 2266 
Q 2766 2663 2505 2880 
Q 2244 3097 1772 3097 
Q 1472 3097 1187 3025 
Q 903 2953 641 2809 
L 641 3341 
Q 956 3463 1253 3523 
Q 1550 3584 1831 3584 
Q 2591 3584 2966 3190 
Q 3341 2797 3341 1997 
z
" transform="scale(0.015625)"/>
      <path id="DejaVuSans-56" d="M 2834 3397 
L 2834 2853 
Q 2591 2978 2328 3040 
Q 2066 3103 1784 3103 
Q 1356 3103 1142 2972 
Q 928 2841 928 2578 
Q 928 2378 1081 2264 
Q 1234 2150 1697 2047 
L 1894 2003 
Q 2506 1872 2764 1633 
Q 3022 1394 3022 966 
Q 3022 478 2636 193 
Q 2250 -91 1575 -91 
Q 1294 -91 989 -36 
Q 684 19 347 128 
L 347 722 
Q 666 556 975 473 
Q 1284 391 1588 391 
Q 1994 391 2212 530 
Q 2431 669 2431 922 
Q 2431 1156 2273 1281 
Q 2116 1406 1581 1522 
L 1381 1569 
Q 847 1681 609 1914 
Q 372 2147 372 2553 
Q 372 3047 722 3315 
Q 1072 3584 1716 3584 
Q 2034 3584 2315 3537 
Q 2597 3491 2834 3397 
z
" transform="scale(0.015625)"/>
      <path id="DejaVuSans-4c" d="M 603 3500 
L 1178 3500 
L 1178 0 
L 603 0 
L 603 3500 
z
M 603 4863 
L 1178 4863 
L 1178 4134 
L 603 4134 
L 603 4863 
z
" transform="scale(0.015625)"/>
      <path id="DejaVuSans-46" d="M 3122 3366 
L 3122 2828 
Q 2878 2963 2633 3030 
Q 2388 3097 2138 3097 
Q 1578 3097 1268 2742 
Q 959 2388 959 1747 
Q 959 1106 1268 751 
Q 1578 397 2138 397 
Q 2388 397 2633 464 
Q 2878 531 3122 666 
L 3122 134 
Q 2881 22 2623 -34 
Q 2366 -91 2075 -91 
Q 1284 -91 818 406 
Q 353 903 353 1747 
Q 353 2603 823 3093 
Q 1294 3584 2113 3584 
Q 2378 3584 2631 3529 
Q 2884 3475 3122 3366 
z
" transform="scale(0.015625)"/>
      <path id="DejaVuSans-3" transform="scale(0.015625)"/>
      <path id="DejaVuSans-53" d="M 1159 525 
L 1159 -1331 
L 581 -1331 
L 581 3500 
L 1159 3500 
L 1159 2969 
Q 1341 3281 1617 3432 
Q 1894 3584 2278 3584 
Q 2916 3584 3314 3078 
Q 3713 2572 3713 1747 
Q 3713 922 3314 415 
Q 2916 -91 2278 -91 
Q 1894 -91 1617 61 
Q 1341 213 1159 525 
z
M 3116 1747 
Q 3116 2381 2855 2742 
Q 2594 3103 2138 3103 
Q 1681 3103 1420 2742 
Q 1159 2381 1159 1747 
Q 1159 1113 1420 752 
Q 1681 391 2138 391 
Q 2594 391 2855 752 
Q 3116 1113 3116 1747 
z
" transform="scale(0.015625)"/>
      <path id="DejaVuSans-55" d="M 2631 2963 
Q 2534 3019 2420 3045 
Q 2306 3072 2169 3072 
Q 1681 3072 1420 2755 
Q 1159 2438 1159 1844 
L 1159 0 
L 581 0 
L 581 3500 
L 1159 3500 
L 1159 2956 
Q 1341 3275 1631 3429 
Q 1922 3584 2338 3584 
Q 2397 3584 2469 3576 
Q 2541 3569 2628 3553 
L 2631 2963 
z
" transform="scale(0.015625)"/>
      <path id="DejaVuSans-52" d="M 1959 3097 
Q 1497 3097 1228 2736 
Q 959 2375 959 1747 
Q 959 1119 1226 758 
Q 1494 397 1959 397 
Q 2419 397 2687 759 
Q 2956 1122 2956 1747 
Q 2956 2369 2687 2733 
Q 2419 3097 1959 3097 
z
M 1959 3584 
Q 2709 3584 3137 3096 
Q 3566 2609 3566 1747 
Q 3566 888 3137 398 
Q 2709 -91 1959 -91 
Q 1206 -91 779 398 
Q 353 888 353 1747 
Q 353 2609 779 3096 
Q 1206 3584 1959 3584 
z
" transform="scale(0.015625)"/>
      <path id="DejaVuSans-57" d="M 1172 4494 
L 1172 3500 
L 2356 3500 
L 2356 3053 
L 1172 3053 
L 1172 1153 
Q 1172 725 1289 603 
Q 1406 481 1766 481 
L 2356 481 
L 2356 0 
L 1766 0 
Q 1100 0 847 248 
Q 594 497 594 1153 
L 594 3053 
L 172 3053 
L 172 3500 
L 594 3500 
L 594 4494 
L 1172 4494 
z
" transform="scale(0.015625)"/>
      <path id="DejaVuSans-51" d="M 3513 2113 
L 3513 0 
L 2938 0 
L 2938 2094 
Q 2938 2591 2744 2837 
Q 2550 3084 2163 3084 
Q 1697 3084 1428 2787 
Q 1159 2491 1159 1978 
L 1159 0 
L 581 0 
L 581 3500 
L 1159 3500 
L 1159 2956 
Q 1366 3272 1645 3428 
Q 1925 3584 2291 3584 
Q 2894 3584 3203 3211 
Q 3513 2838 3513 2113 
z
" transform="scale(0.015625)"/>
      <path id="DejaVuSans-4a" d="M 2906 1791 
Q 2906 2416 2648 2759 
Q 2391 3103 1925 3103 
Q 1463 3103 1205 2759 
Q 947 2416 947 1791 
Q 947 1169 1205 825 
Q 1463 481 1925 481 
Q 2391 481 2648 825 
Q 2906 1169 2906 1791 
z
M 3481 434 
Q 3481 -459 3084 -895 
Q 2688 -1331 1869 -1331 
Q 1566 -1331 1297 -1286 
Q 1028 -1241 775 -1147 
L 775 -588 
Q 1028 -725 1275 -790 
Q 1522 -856 1778 -856 
Q 2344 -856 2625 -561 
Q 2906 -266 2906 331 
L 2906 616 
Q 2728 306 2450 153 
Q 2172 0 1784 0 
Q 1141 0 747 490 
Q 353 981 353 1791 
Q 353 2603 747 3093 
Q 1141 3584 1784 3584 
Q 2172 3584 2450 3431 
Q 2728 3278 2906 2969 
L 2906 3500 
L 3481 3500 
L 3481 434 
z
" transform="scale(0.015625)"/>
     </defs>
     <use xlink:href="#DejaVuSans-26"/>
     <use xlink:href="#DejaVuSans-4f" transform="translate(69.828125 0)"/>
     <use xlink:href="#DejaVuSans-44" transform="translate(97.609375 0)"/>
     <use xlink:href="#DejaVuSans-56" transform="translate(158.890625 0)"/>
     <use xlink:href="#DejaVuSans-56" transform="translate(210.984375 0)"/>
     <use xlink:href="#DejaVuSans-4c" transform="translate(263.078125 0)"/>
     <use xlink:href="#DejaVuSans-46" transform="translate(290.859375 0)"/>
     <use xlink:href="#DejaVuSans-44" transform="translate(345.84375 0)"/>
     <use xlink:href="#DejaVuSans-4f" transform="translate(407.125 0)"/>
     <use xlink:href="#DejaVuSans-3" transform="translate(434.90625 0)"/>
     <use xlink:href="#DejaVuSans-53" transform="translate(466.6875 0)"/>
     <use xlink:href="#DejaVuSans-55" transform="translate(530.171875 0)"/>
     <use xlink:href="#DejaVuSans-52" transform="translate(569.078125 0)"/>
     <use xlink:href="#DejaVuSans-53" transform="translate(630.265625 0)"/>
     <use xlink:href="#DejaVuSans-52" transform="translate(693.75 0)"/>
     <use xlink:href="#DejaVuSans-56" transform="translate(754.9375 0)"/>
     <use xlink:href="#DejaVuSans-4c" transform="translate(807.03125 0)"/>
     <use xlink:href="#DejaVuSans-57" transform="translate(834.8125 0)"/>
     <use xlink:href="#DejaVuSans-4c" transform="translate(874.015625 0)"/>
     <use xlink:href="#DejaVuSans-52" transform="translate(901.796875 0)"/>
     <use xlink:href="#DejaVuSans-51" transform="translate(962.984375 0)"/>
     <use xlink:href="#DejaVuSans-44" transform="translate(1026.359375 0)"/>
     <use xlink:href="#DejaVuSans-4f" transform="translate(1087.640625 0)"/>
     <use xlink:href="#DejaVuSans-3" transform="translate(1115.421875 0)"/>
     <use xlink:href="#DejaVuSans-4f" transform="translate(1147.203125 0)"/>
     <use xlink:href="#DejaVuSans-52" transform="translate(1174.984375 0)"/>
     <use xlink:href="#DejaVuSans-4a" transform="translate(1236.171875 0)"/>
     <use xlink:href="#DejaVuSans-4c" transform="translate(1299.65625 0)"/>
     <use xlink:href="#DejaVuSans-46" transform="translate(1327.4375 0)"/>
    </g>
   </g>
   <g id="text_6">
    <!-- explodes -->
    <g style="fill: #1a1a1a" transform="translate(250.891342 124.81474) scale(0.085 -0.085)">
     <defs>
      <path id="DejaVuSans-48" d="M 3597 1894 
L 3597 1613 
L 953 1613 
Q 991 1019 1311 708 
Q 1631 397 2203 397 
Q 2534 397 2845 478 
Q 3156 559 3463 722 
L 3463 178 
Q 3153 47 2828 -22 
Q 2503 -91 2169 -91 
Q 1331 -91 842 396 
Q 353 884 353 1716 
Q 353 2575 817 3079 
Q 1281 3584 2069 3584 
Q 2775 3584 3186 3129 
Q 3597 2675 3597 1894 
z
M 3022 2063 
Q 3016 2534 2758 2815 
Q 2500 3097 2075 3097 
Q 1594 3097 1305 2825 
Q 1016 2553 972 2059 
L 3022 2063 
z
" transform="scale(0.015625)"/>
      <path id="DejaVuSans-5b" d="M 3513 3500 
L 2247 1797 
L 3578 0 
L 2900 0 
L 1881 1375 
L 863 0 
L 184 0 
L 1544 1831 
L 300 3500 
L 978 3500 
L 1906 2253 
L 2834 3500 
L 3513 3500 
z
" transform="scale(0.015625)"/>
      <path id="DejaVuSans-47" d="M 2906 2969 
L 2906 4863 
L 3481 4863 
L 3481 0 
L 2906 0 
L 2906 525 
Q 2725 213 2448 61 
Q 2172 -91 1784 -91 
Q 1150 -91 751 415 
Q 353 922 353 1747 
Q 353 2572 751 3078 
Q 1150 3584 1784 3584 
Q 2172 3584 2448 3432 
Q 2725 3281 2906 2969 
z
M 947 1747 
Q 947 1113 1208 752 
Q 1469 391 1925 391 
Q 2381 391 2643 752 
Q 2906 1113 2906 1747 
Q 2906 2381 2643 2742 
Q 2381 3103 1925 3103 
Q 1469 3103 1208 2742 
Q 947 2381 947 1747 
z
" transform="scale(0.015625)"/>
     </defs>
     <use xlink:href="#DejaVuSans-48"/>
     <use xlink:href="#DejaVuSans-5b" transform="translate(59.78125 0)"/>
     <use xlink:href="#DejaVuSans-53" transform="translate(118.96875 0)"/>
     <use xlink:href="#DejaVuSans-4f" transform="translate(182.453125 0)"/>
     <use xlink:href="#DejaVuSans-52" transform="translate(210.234375 0)"/>
     <use xlink:href="#DejaVuSans-47" transform="translate(271.421875 0)"/>
     <use xlink:href="#DejaVuSans-48" transform="translate(334.90625 0)"/>
     <use xlink:href="#DejaVuSans-56" transform="translate(396.4375 0)"/>
    </g>
   </g>
   <g id="text_7">
    <!-- everything (vacuous entailment) -->
    <g style="fill: #1a1a1a" transform="translate(368.382979 124.81474) scale(0.085 -0.085)">
     <defs>
      <path id="DejaVuSans-59" d="M 191 3500 
L 800 3500 
L 1894 563 
L 2988 3500 
L 3597 3500 
L 2284 0 
L 1503 0 
L 191 3500 
z
" transform="scale(0.015625)"/>
      <path id="DejaVuSans-5c" d="M 2059 -325 
Q 1816 -950 1584 -1140 
Q 1353 -1331 966 -1331 
L 506 -1331 
L 506 -850 
L 844 -850 
Q 1081 -850 1212 -737 
Q 1344 -625 1503 -206 
L 1606 56 
L 191 3500 
L 800 3500 
L 1894 763 
L 2988 3500 
L 3597 3500 
L 2059 -325 
z
" transform="scale(0.015625)"/>
      <path id="DejaVuSans-4b" d="M 3513 2113 
L 3513 0 
L 2938 0 
L 2938 2094 
Q 2938 2591 2744 2837 
Q 2550 3084 2163 3084 
Q 1697 3084 1428 2787 
Q 1159 2491 1159 1978 
L 1159 0 
L 581 0 
L 581 4863 
L 1159 4863 
L 1159 2956 
Q 1366 3272 1645 3428 
Q 1925 3584 2291 3584 
Q 2894 3584 3203 3211 
Q 3513 2838 3513 2113 
z
" transform="scale(0.015625)"/>
      <path id="DejaVuSans-b" d="M 1984 4856 
Q 1566 4138 1362 3434 
Q 1159 2731 1159 2009 
Q 1159 1288 1364 580 
Q 1569 -128 1984 -844 
L 1484 -844 
Q 1016 -109 783 600 
Q 550 1309 550 2009 
Q 550 2706 781 3412 
Q 1013 4119 1484 4856 
L 1984 4856 
z
" transform="scale(0.015625)"/>
      <path id="DejaVuSans-58" d="M 544 1381 
L 544 3500 
L 1119 3500 
L 1119 1403 
Q 1119 906 1312 657 
Q 1506 409 1894 409 
Q 2359 409 2629 706 
Q 2900 1003 2900 1516 
L 2900 3500 
L 3475 3500 
L 3475 0 
L 2900 0 
L 2900 538 
Q 2691 219 2414 64 
Q 2138 -91 1772 -91 
Q 1169 -91 856 284 
Q 544 659 544 1381 
z
M 1991 3584 
L 1991 3584 
z
" transform="scale(0.015625)"/>
      <path id="DejaVuSans-50" d="M 3328 2828 
Q 3544 3216 3844 3400 
Q 4144 3584 4550 3584 
Q 5097 3584 5394 3201 
Q 5691 2819 5691 2113 
L 5691 0 
L 5113 0 
L 5113 2094 
Q 5113 2597 4934 2840 
Q 4756 3084 4391 3084 
Q 3944 3084 3684 2787 
Q 3425 2491 3425 1978 
L 3425 0 
L 2847 0 
L 2847 2094 
Q 2847 2600 2669 2842 
Q 2491 3084 2119 3084 
Q 1678 3084 1418 2786 
Q 1159 2488 1159 1978 
L 1159 0 
L 581 0 
L 581 3500 
L 1159 3500 
L 1159 2956 
Q 1356 3278 1631 3431 
Q 1906 3584 2284 3584 
Q 2666 3584 2933 3390 
Q 3200 3197 3328 2828 
z
" transform="scale(0.015625)"/>
      <path id="DejaVuSans-c" d="M 513 4856 
L 1013 4856 
Q 1481 4119 1714 3412 
Q 1947 2706 1947 2009 
Q 1947 1309 1714 600 
Q 1481 -109 1013 -844 
L 513 -844 
Q 928 -128 1133 580 
Q 1338 1288 1338 2009 
Q 1338 2731 1133 3434 
Q 928 4138 513 4856 
z
" transform="scale(0.015625)"/>
     </defs>
     <use xlink:href="#DejaVuSans-48"/>
     <use xlink:href="#DejaVuSans-59" transform="translate(61.53125 0)"/>
     <use xlink:href="#DejaVuSans-48" transform="translate(120.71875 0)"/>
     <use xlink:href="#DejaVuSans-55" transform="translate(182.25 0)"/>
     <use xlink:href="#DejaVuSans-5c" transform="translate(223.359375 0)"/>
     <use xlink:href="#DejaVuSans-57" transform="translate(282.546875 0)"/>
     <use xlink:href="#DejaVuSans-4b" transform="translate(321.75 0)"/>
     <use xlink:href="#DejaVuSans-4c" transform="translate(385.125 0)"/>
     <use xlink:href="#DejaVuSans-51" transform="translate(412.90625 0)"/>
     <use xlink:href="#DejaVuSans-4a" transform="translate(476.28125 0)"/>
     <use xlink:href="#DejaVuSans-3" transform="translate(539.765625 0)"/>
     <use xlink:href="#DejaVuSans-b" transform="translate(571.546875 0)"/>
     <use xlink:href="#DejaVuSans-59" transform="translate(610.5625 0)"/>
     <use xlink:href="#DejaVuSans-44" transform="translate(669.75 0)"/>
     <use xlink:href="#DejaVuSans-46" transform="translate(731.03125 0)"/>
     <use xlink:href="#DejaVuSans-58" transform="translate(786.015625 0)"/>
     <use xlink:href="#DejaVuSans-52" transform="translate(849.390625 0)"/>
     <use xlink:href="#DejaVuSans-58" transform="translate(910.578125 0)"/>
     <use xlink:href="#DejaVuSans-56" transform="translate(973.953125 0)"/>
     <use xlink:href="#DejaVuSans-3" transform="translate(1026.046875 0)"/>
     <use xlink:href="#DejaVuSans-48" transform="translate(1057.828125 0)"/>
     <use xlink:href="#DejaVuSans-51" transform="translate(1119.359375 0)"/>
     <use xlink:href="#DejaVuSans-57" transform="translate(1182.734375 0)"/>
     <use xlink:href="#DejaVuSans-44" transform="translate(1221.9375 0)"/>
     <use xlink:href="#DejaVuSans-4c" transform="translate(1283.21875 0)"/>
     <use xlink:href="#DejaVuSans-4f" transform="translate(1311 0)"/>
     <use xlink:href="#DejaVuSans-50" transform="translate(1338.78125 0)"/>
     <use xlink:href="#DejaVuSans-48" transform="translate(1436.1875 0)"/>
     <use xlink:href="#DejaVuSans-51" transform="translate(1497.71875 0)"/>
     <use xlink:href="#DejaVuSans-57" transform="translate(1561.09375 0)"/>
     <use xlink:href="#DejaVuSans-c" transform="translate(1600.296875 0)"/>
    </g>
   </g>
   <g id="text_8">
    <!-- destroyed (everything derivable, nothing distinguishable) -->
    <g style="fill: #26405e" transform="translate(487.673111 119.713578) scale(0.085 -0.085)">
     <defs>
      <path id="DejaVuSans-Bold-b" d="M 2413 -844 
L 1484 -844 
Q 1006 -72 778 623 
Q 550 1319 550 2003 
Q 550 2688 779 3389 
Q 1009 4091 1484 4856 
L 2413 4856 
Q 2013 4116 1813 3408 
Q 1613 2700 1613 2009 
Q 1613 1319 1811 609 
Q 2009 -100 2413 -844 
z
" transform="scale(0.015625)"/>
      <path id="DejaVuSans-Bold-4a" d="M 2919 594 
Q 2688 288 2409 144 
Q 2131 0 1766 0 
Q 1125 0 706 504 
Q 288 1009 288 1791 
Q 288 2575 706 3076 
Q 1125 3578 1766 3578 
Q 2131 3578 2409 3434 
Q 2688 3291 2919 2981 
L 2919 3500 
L 4044 3500 
L 4044 353 
Q 4044 -491 3511 -936 
Q 2978 -1381 1966 -1381 
Q 1638 -1381 1331 -1331 
Q 1025 -1281 716 -1178 
L 716 -306 
Q 1009 -475 1290 -558 
Q 1572 -641 1856 -641 
Q 2406 -641 2662 -400 
Q 2919 -159 2919 353 
L 2919 594 
z
M 2181 2772 
Q 1834 2772 1640 2515 
Q 1447 2259 1447 1791 
Q 1447 1309 1634 1061 
Q 1822 813 2181 813 
Q 2531 813 2725 1069 
Q 2919 1325 2919 1791 
Q 2919 2259 2725 2515 
Q 2531 2772 2181 2772 
z
" transform="scale(0.015625)"/>
      <path id="DejaVuSans-Bold-45" d="M 2400 722 
Q 2759 722 2948 984 
Q 3138 1247 3138 1747 
Q 3138 2247 2948 2509 
Q 2759 2772 2400 2772 
Q 2041 2772 1848 2508 
Q 1656 2244 1656 1747 
Q 1656 1250 1848 986 
Q 2041 722 2400 722 
z
M 1656 2988 
Q 1888 3294 2169 3439 
Q 2450 3584 2816 3584 
Q 3463 3584 3878 3070 
Q 4294 2556 4294 1747 
Q 4294 938 3878 423 
Q 3463 -91 2816 -91 
Q 2450 -91 2169 54 
Q 1888 200 1656 506 
L 1656 0 
L 538 0 
L 538 4863 
L 1656 4863 
L 1656 2988 
z
" transform="scale(0.015625)"/>
      <path id="DejaVuSans-Bold-f" d="M 653 1209 
L 1778 1209 
L 1778 256 
L 1006 -909 
L 341 -909 
L 653 256 
L 653 1209 
z
" transform="scale(0.015625)"/>
      <path id="DejaVuSans-Bold-c" d="M 513 -844 
Q 913 -100 1113 609 
Q 1313 1319 1313 2009 
Q 1313 2700 1113 3408 
Q 913 4116 513 4856 
L 1441 4856 
Q 1916 4091 2145 3389 
Q 2375 2688 2375 2003 
Q 2375 1319 2147 623 
Q 1919 -72 1441 -844 
L 513 -844 
z
" transform="scale(0.015625)"/>
     </defs>
     <use xlink:href="#DejaVuSans-Bold-47"/>
     <use xlink:href="#DejaVuSans-Bold-48" transform="translate(71.578125 0)"/>
     <use xlink:href="#DejaVuSans-Bold-56" transform="translate(139.40625 0)"/>
     <use xlink:href="#DejaVuSans-Bold-57" transform="translate(198.921875 0)"/>
     <use xlink:href="#DejaVuSans-Bold-55" transform="translate(246.71875 0)"/>
     <use xlink:href="#DejaVuSans-Bold-52" transform="translate(296.03125 0)"/>
     <use xlink:href="#DejaVuSans-Bold-5c" transform="translate(364.734375 0)"/>
     <use xlink:href="#DejaVuSans-Bold-48" transform="translate(429.921875 0)"/>
     <use xlink:href="#DejaVuSans-Bold-47" transform="translate(497.75 0)"/>
     <use xlink:href="#DejaVuSans-Bold-3" transform="translate(569.328125 0)"/>
     <use xlink:href="#DejaVuSans-Bold-b" transform="translate(604.140625 0)"/>
     <use xlink:href="#DejaVuSans-Bold-48" transform="translate(649.84375 0)"/>
     <use xlink:href="#DejaVuSans-Bold-59" transform="translate(717.671875 0)"/>
     <use xlink:href="#DejaVuSans-Bold-48" transform="translate(782.859375 0)"/>
     <use xlink:href="#DejaVuSans-Bold-55" transform="translate(850.6875 0)"/>
     <use xlink:href="#DejaVuSans-Bold-5c" transform="translate(900 0)"/>
     <use xlink:href="#DejaVuSans-Bold-57" transform="translate(965.1875 0)"/>
     <use xlink:href="#DejaVuSans-Bold-4b" transform="translate(1012.984375 0)"/>
     <use xlink:href="#DejaVuSans-Bold-4c" transform="translate(1084.171875 0)"/>
     <use xlink:href="#DejaVuSans-Bold-51" transform="translate(1118.453125 0)"/>
     <use xlink:href="#DejaVuSans-Bold-4a" transform="translate(1189.640625 0)"/>
     <use xlink:href="#DejaVuSans-Bold-3" transform="translate(1261.21875 0)"/>
     <use xlink:href="#DejaVuSans-Bold-47" transform="translate(1296.03125 0)"/>
     <use xlink:href="#DejaVuSans-Bold-48" transform="translate(1367.609375 0)"/>
     <use xlink:href="#DejaVuSans-Bold-55" transform="translate(1435.4375 0)"/>
     <use xlink:href="#DejaVuSans-Bold-4c" transform="translate(1484.75 0)"/>
     <use xlink:href="#DejaVuSans-Bold-59" transform="translate(1519.03125 0)"/>
     <use xlink:href="#DejaVuSans-Bold-44" transform="translate(1584.21875 0)"/>
     <use xlink:href="#DejaVuSans-Bold-45" transform="translate(1651.703125 0)"/>
     <use xlink:href="#DejaVuSans-Bold-4f" transform="translate(1723.28125 0)"/>
     <use xlink:href="#DejaVuSans-Bold-48" transform="translate(1757.5625 0)"/>
     <use xlink:href="#DejaVuSans-Bold-f" transform="translate(1825.390625 0)"/>
     <use xlink:href="#DejaVuSans-Bold-3" transform="translate(1863.375 0)"/>
     <use xlink:href="#DejaVuSans-Bold-51" transform="translate(1898.1875 0)"/>
     <use xlink:href="#DejaVuSans-Bold-52" transform="translate(1969.375 0)"/>
     <use xlink:href="#DejaVuSans-Bold-57" transform="translate(2038.078125 0)"/>
     <use xlink:href="#DejaVuSans-Bold-4b" transform="translate(2085.875 0)"/>
     <use xlink:href="#DejaVuSans-Bold-4c" transform="translate(2157.0625 0)"/>
     <use xlink:href="#DejaVuSans-Bold-51" transform="translate(2191.34375 0)"/>
     <use xlink:href="#DejaVuSans-Bold-4a" transform="translate(2262.53125 0)"/>
     <use xlink:href="#DejaVuSans-Bold-3" transform="translate(2334.109375 0)"/>
     <use xlink:href="#DejaVuSans-Bold-47" transform="translate(2368.921875 0)"/>
     <use xlink:href="#DejaVuSans-Bold-4c" transform="translate(2440.5 0)"/>
     <use xlink:href="#DejaVuSans-Bold-56" transform="translate(2474.78125 0)"/>
     <use xlink:href="#DejaVuSans-Bold-57" transform="translate(2534.296875 0)"/>
     <use xlink:href="#DejaVuSans-Bold-4c" transform="translate(2582.09375 0)"/>
     <use xlink:href="#DejaVuSans-Bold-51" transform="translate(2616.375 0)"/>
     <use xlink:href="#DejaVuSans-Bold-4a" transform="translate(2687.5625 0)"/>
     <use xlink:href="#DejaVuSans-Bold-58" transform="translate(2759.140625 0)"/>
     <use xlink:href="#DejaVuSans-Bold-4c" transform="translate(2830.328125 0)"/>
     <use xlink:href="#DejaVuSans-Bold-56" transform="translate(2864.609375 0)"/>
     <use xlink:href="#DejaVuSans-Bold-4b" transform="translate(2924.125 0)"/>
     <use xlink:href="#DejaVuSans-Bold-44" transform="translate(2995.3125 0)"/>
     <use xlink:href="#DejaVuSans-Bold-45" transform="translate(3062.796875 0)"/>
     <use xlink:href="#DejaVuSans-Bold-4f" transform="translate(3134.375 0)"/>
     <use xlink:href="#DejaVuSans-Bold-48" transform="translate(3168.65625 0)"/>
     <use xlink:href="#DejaVuSans-Bold-c" transform="translate(3236.484375 0)"/>
    </g>
    <!-- ⊥ ⊢ everything -->
    <g style="fill: #26405e" transform="translate(590.454049 129.915902) scale(0.085 -0.085)">
     <defs>
      <path id="DejaVuSans-Bold-d2f" d="M 2588 675 
L 2588 4513 
L 3263 4513 
L 3263 675 
L 5303 675 
L 5303 0 
L 547 0 
L 547 675 
L 2588 675 
z
" transform="scale(0.015625)"/>
      <path id="DejaVuSans-Bold-d2c" d="M 547 4513 
L 1222 4513 
L 1222 2594 
L 5303 2594 
L 5303 1919 
L 1222 1919 
L 1222 0 
L 547 0 
L 547 4513 
z
" transform="scale(0.015625)"/>
     </defs>
     <use xlink:href="#DejaVuSans-Bold-d2f"/>
     <use xlink:href="#DejaVuSans-Bold-3" transform="translate(91.40625 0)"/>
     <use xlink:href="#DejaVuSans-Bold-d2c" transform="translate(126.21875 0)"/>
     <use xlink:href="#DejaVuSans-Bold-3" transform="translate(217.625 0)"/>
     <use xlink:href="#DejaVuSans-Bold-48" transform="translate(252.4375 0)"/>
     <use xlink:href="#DejaVuSans-Bold-59" transform="translate(320.265625 0)"/>
     <use xlink:href="#DejaVuSans-Bold-48" transform="translate(385.453125 0)"/>
     <use xlink:href="#DejaVuSans-Bold-55" transform="translate(453.28125 0)"/>
     <use xlink:href="#DejaVuSans-Bold-5c" transform="translate(502.59375 0)"/>
     <use xlink:href="#DejaVuSans-Bold-57" transform="translate(567.78125 0)"/>
     <use xlink:href="#DejaVuSans-Bold-4b" transform="translate(615.578125 0)"/>
     <use xlink:href="#DejaVuSans-Bold-4c" transform="translate(686.765625 0)"/>
     <use xlink:href="#DejaVuSans-Bold-51" transform="translate(721.046875 0)"/>
     <use xlink:href="#DejaVuSans-Bold-4a" transform="translate(792.234375 0)"/>
    </g>
   </g>
   <g id="text_9">
    <!-- LP (Priest's Logic of Paradox) -->
    <g style="fill: #1a1a1a" transform="translate(47.69742 193.10338) scale(0.085 -0.085)">
     <defs>
      <path id="DejaVuSans-2f" d="M 628 4666 
L 1259 4666 
L 1259 531 
L 3531 531 
L 3531 0 
L 628 0 
L 628 4666 
z
" transform="scale(0.015625)"/>
      <path id="DejaVuSans-33" d="M 1259 4147 
L 1259 2394 
L 2053 2394 
Q 2494 2394 2734 2622 
Q 2975 2850 2975 3272 
Q 2975 3691 2734 3919 
Q 2494 4147 2053 4147 
L 1259 4147 
z
M 628 4666 
L 2053 4666 
Q 2838 4666 3239 4311 
Q 3641 3956 3641 3272 
Q 3641 2581 3239 2228 
Q 2838 1875 2053 1875 
L 1259 1875 
L 1259 0 
L 628 0 
L 628 4666 
z
" transform="scale(0.015625)"/>
      <path id="DejaVuSans-a" d="M 1147 4666 
L 1147 2931 
L 616 2931 
L 616 4666 
L 1147 4666 
z
" transform="scale(0.015625)"/>
      <path id="DejaVuSans-49" d="M 2375 4863 
L 2375 4384 
L 1825 4384 
Q 1516 4384 1395 4259 
Q 1275 4134 1275 3809 
L 1275 3500 
L 2222 3500 
L 2222 3053 
L 1275 3053 
L 1275 0 
L 697 0 
L 697 3053 
L 147 3053 
L 147 3500 
L 697 3500 
L 697 3744 
Q 697 4328 969 4595 
Q 1241 4863 1831 4863 
L 2375 4863 
z
" transform="scale(0.015625)"/>
     </defs>
     <use xlink:href="#DejaVuSans-2f"/>
     <use xlink:href="#DejaVuSans-33" transform="translate(55.71875 0)"/>
     <use xlink:href="#DejaVuSans-3" transform="translate(116.015625 0)"/>
     <use xlink:href="#DejaVuSans-b" transform="translate(147.796875 0)"/>
     <use xlink:href="#DejaVuSans-33" transform="translate(186.8125 0)"/>
     <use xlink:href="#DejaVuSans-55" transform="translate(245.359375 0)"/>
     <use xlink:href="#DejaVuSans-4c" transform="translate(286.46875 0)"/>
     <use xlink:href="#DejaVuSans-48" transform="translate(314.25 0)"/>
     <use xlink:href="#DejaVuSans-56" transform="translate(375.78125 0)"/>
     <use xlink:href="#DejaVuSans-57" transform="translate(427.875 0)"/>
     <use xlink:href="#DejaVuSans-a" transform="translate(467.078125 0)"/>
     <use xlink:href="#DejaVuSans-56" transform="translate(494.5625 0)"/>
     <use xlink:href="#DejaVuSans-3" transform="translate(546.65625 0)"/>
     <use xlink:href="#DejaVuSans-2f" transform="translate(578.4375 0)"/>
     <use xlink:href="#DejaVuSans-52" transform="translate(632.40625 0)"/>
     <use xlink:href="#DejaVuSans-4a" transform="translate(693.59375 0)"/>
     <use xlink:href="#DejaVuSans-4c" transform="translate(757.078125 0)"/>
     <use xlink:href="#DejaVuSans-46" transform="translate(784.859375 0)"/>
     <use xlink:href="#DejaVuSans-3" transform="translate(839.84375 0)"/>
     <use xlink:href="#DejaVuSans-52" transform="translate(871.625 0)"/>
     <use xlink:href="#DejaVuSans-49" transform="translate(932.8125 0)"/>
     <use xlink:href="#DejaVuSans-3" transform="translate(968.015625 0)"/>
     <use xlink:href="#DejaVuSans-33" transform="translate(999.796875 0)"/>
     <use xlink:href="#DejaVuSans-44" transform="translate(1055.609375 0)"/>
     <use xlink:href="#DejaVuSans-55" transform="translate(1116.890625 0)"/>
     <use xlink:href="#DejaVuSans-44" transform="translate(1158 0)"/>
     <use xlink:href="#DejaVuSans-47" transform="translate(1219.28125 0)"/>
     <use xlink:href="#DejaVuSans-52" transform="translate(1282.765625 0)"/>
     <use xlink:href="#DejaVuSans-5b" transform="translate(1340.875 0)"/>
     <use xlink:href="#DejaVuSans-c" transform="translate(1400.0625 0)"/>
    </g>
   </g>
   <g id="text_10">
    <!-- tolerated -->
    <g style="fill: #1a1a1a" transform="translate(250.560639 193.10338) scale(0.085 -0.085)">
     <use xlink:href="#DejaVuSans-57"/>
     <use xlink:href="#DejaVuSans-52" transform="translate(39.203125 0)"/>
     <use xlink:href="#DejaVuSans-4f" transform="translate(100.390625 0)"/>
     <use xlink:href="#DejaVuSans-48" transform="translate(128.171875 0)"/>
     <use xlink:href="#DejaVuSans-55" transform="translate(189.703125 0)"/>
     <use xlink:href="#DejaVuSans-44" transform="translate(230.8125 0)"/>
     <use xlink:href="#DejaVuSans-57" transform="translate(292.09375 0)"/>
     <use xlink:href="#DejaVuSans-48" transform="translate(331.296875 0)"/>
     <use xlink:href="#DejaVuSans-47" transform="translate(392.828125 0)"/>
    </g>
   </g>
   <g id="text_11">
    <!-- nothing new in the λ-free language (inert) -->
    <g style="fill: #1a1a1a" transform="translate(348.655674 193.10338) scale(0.085 -0.085)">
     <defs>
      <path id="DejaVuSans-5a" d="M 269 3500 
L 844 3500 
L 1563 769 
L 2278 3500 
L 2956 3500 
L 3675 769 
L 4391 3500 
L 4966 3500 
L 4050 0 
L 3372 0 
L 2619 2869 
L 1863 0 
L 1184 0 
L 269 3500 
z
" transform="scale(0.015625)"/>
      <path id="DejaVuSans-34f" d="M 1981 4316 
L 3597 0 
L 2988 0 
L 2006 2588 
L 800 0 
L 191 0 
L 1725 3356 
L 1494 3975 
Q 1347 4369 1013 4369 
L 713 4369 
L 713 4863 
L 1078 4856 
Q 1784 4847 1981 4316 
z
" transform="scale(0.015625)"/>
      <path id="DejaVuSans-10" d="M 313 2009 
L 1997 2009 
L 1997 1497 
L 313 1497 
L 313 2009 
z
" transform="scale(0.015625)"/>
     </defs>
     <use xlink:href="#DejaVuSans-51"/>
     <use xlink:href="#DejaVuSans-52" transform="translate(63.375 0)"/>
     <use xlink:href="#DejaVuSans-57" transform="translate(124.5625 0)"/>
     <use xlink:href="#DejaVuSans-4b" transform="translate(163.765625 0)"/>
     <use xlink:href="#DejaVuSans-4c" transform="translate(227.140625 0)"/>
     <use xlink:href="#DejaVuSans-51" transform="translate(254.921875 0)"/>
     <use xlink:href="#DejaVuSans-4a" transform="translate(318.296875 0)"/>
     <use xlink:href="#DejaVuSans-3" transform="translate(381.78125 0)"/>
     <use xlink:href="#DejaVuSans-51" transform="translate(413.5625 0)"/>
     <use xlink:href="#DejaVuSans-48" transform="translate(476.9375 0)"/>
     <use xlink:href="#DejaVuSans-5a" transform="translate(538.46875 0)"/>
     <use xlink:href="#DejaVuSans-3" transform="translate(620.25 0)"/>
     <use xlink:href="#DejaVuSans-4c" transform="translate(652.03125 0)"/>
     <use xlink:href="#DejaVuSans-51" transform="translate(679.8125 0)"/>
     <use xlink:href="#DejaVuSans-3" transform="translate(743.1875 0)"/>
     <use xlink:href="#DejaVuSans-57" transform="translate(774.96875 0)"/>
     <use xlink:href="#DejaVuSans-4b" transform="translate(814.171875 0)"/>
     <use xlink:href="#DejaVuSans-48" transform="translate(877.546875 0)"/>
     <use xlink:href="#DejaVuSans-3" transform="translate(939.078125 0)"/>
     <use xlink:href="#DejaVuSans-34f" transform="translate(970.859375 0)"/>
     <use xlink:href="#DejaVuSans-10" transform="translate(1030.046875 0)"/>
     <use xlink:href="#DejaVuSans-49" transform="translate(1066.125 0)"/>
     <use xlink:href="#DejaVuSans-55" transform="translate(1101.328125 0)"/>
     <use xlink:href="#DejaVuSans-48" transform="translate(1140.234375 0)"/>
     <use xlink:href="#DejaVuSans-48" transform="translate(1201.765625 0)"/>
     <use xlink:href="#DejaVuSans-3" transform="translate(1263.296875 0)"/>
     <use xlink:href="#DejaVuSans-4f" transform="translate(1295.078125 0)"/>
     <use xlink:href="#DejaVuSans-44" transform="translate(1322.859375 0)"/>
     <use xlink:href="#DejaVuSans-51" transform="translate(1384.140625 0)"/>
     <use xlink:href="#DejaVuSans-4a" transform="translate(1447.515625 0)"/>
     <use xlink:href="#DejaVuSans-58" transform="translate(1511 0)"/>
     <use xlink:href="#DejaVuSans-44" transform="translate(1574.375 0)"/>
     <use xlink:href="#DejaVuSans-4a" transform="translate(1635.65625 0)"/>
     <use xlink:href="#DejaVuSans-48" transform="translate(1699.140625 0)"/>
     <use xlink:href="#DejaVuSans-3" transform="translate(1760.671875 0)"/>
     <use xlink:href="#DejaVuSans-b" transform="translate(1792.453125 0)"/>
     <use xlink:href="#DejaVuSans-4c" transform="translate(1831.46875 0)"/>
     <use xlink:href="#DejaVuSans-51" transform="translate(1859.25 0)"/>
     <use xlink:href="#DejaVuSans-48" transform="translate(1922.625 0)"/>
     <use xlink:href="#DejaVuSans-55" transform="translate(1984.15625 0)"/>
     <use xlink:href="#DejaVuSans-57" transform="translate(2025.265625 0)"/>
     <use xlink:href="#DejaVuSans-c" transform="translate(2064.46875 0)"/>
    </g>
   </g>
   <g id="text_12">
    <!-- zero (contradiction quarantined, no new λ-free consequences) -->
    <g style="fill: #26405e" transform="translate(477.414674 188.002218) scale(0.085 -0.085)">
     <defs>
      <path id="DejaVuSans-Bold-5d" d="M 366 3500 
L 3419 3500 
L 3419 2719 
L 1575 800 
L 3419 800 
L 3419 0 
L 288 0 
L 288 781 
L 2131 2700 
L 366 2700 
L 366 3500 
z
" transform="scale(0.015625)"/>
      <path id="DejaVuSans-Bold-54" d="M 2181 2772 
Q 1825 2772 1636 2509 
Q 1447 2247 1447 1747 
Q 1447 1247 1636 984 
Q 1825 722 2181 722 
Q 2541 722 2730 984 
Q 2919 1247 2919 1747 
Q 2919 2247 2730 2509 
Q 2541 2772 2181 2772 
z
M 2919 506 
Q 2688 197 2409 53 
Q 2131 -91 1766 -91 
Q 1119 -91 703 423 
Q 288 938 288 1747 
Q 288 2556 703 3067 
Q 1119 3578 1766 3578 
Q 2131 3578 2409 3434 
Q 2688 3291 2919 2981 
L 2919 3500 
L 4044 3500 
L 4044 -1331 
L 2919 -1331 
L 2919 506 
z
" transform="scale(0.015625)"/>
      <path id="DejaVuSans-Bold-34f" d="M 1544 3188 
L 1350 3713 
Q 1263 3953 1145 4040 
Q 1028 4128 734 4128 
L 384 4128 
L 384 4863 
L 1031 4863 
Q 1600 4863 1908 4622 
Q 2216 4381 2428 3813 
L 3859 0 
L 2741 0 
L 2044 1838 
L 1309 0 
L 191 0 
L 1544 3188 
z
" transform="scale(0.015625)"/>
      <path id="DejaVuSans-Bold-10" d="M 347 2297 
L 2309 2297 
L 2309 1388 
L 347 1388 
L 347 2297 
z
" transform="scale(0.015625)"/>
     </defs>
     <use xlink:href="#DejaVuSans-Bold-5d"/>
     <use xlink:href="#DejaVuSans-Bold-48" transform="translate(58.203125 0)"/>
     <use xlink:href="#DejaVuSans-Bold-55" transform="translate(126.03125 0)"/>
     <use xlink:href="#DejaVuSans-Bold-52" transform="translate(175.34375 0)"/>
     <use xlink:href="#DejaVuSans-Bold-3" transform="translate(244.046875 0)"/>
     <use xlink:href="#DejaVuSans-Bold-b" transform="translate(278.859375 0)"/>
     <use xlink:href="#DejaVuSans-Bold-46" transform="translate(324.5625 0)"/>
     <use xlink:href="#DejaVuSans-Bold-52" transform="translate(383.84375 0)"/>
     <use xlink:href="#DejaVuSans-Bold-51" transform="translate(452.546875 0)"/>
     <use xlink:href="#DejaVuSans-Bold-57" transform="translate(523.734375 0)"/>
     <use xlink:href="#DejaVuSans-Bold-55" transform="translate(571.53125 0)"/>
     <use xlink:href="#DejaVuSans-Bold-44" transform="translate(620.84375 0)"/>
     <use xlink:href="#DejaVuSans-Bold-47" transform="translate(688.328125 0)"/>
     <use xlink:href="#DejaVuSans-Bold-4c" transform="translate(759.90625 0)"/>
     <use xlink:href="#DejaVuSans-Bold-46" transform="translate(794.1875 0)"/>
     <use xlink:href="#DejaVuSans-Bold-57" transform="translate(853.46875 0)"/>
     <use xlink:href="#DejaVuSans-Bold-4c" transform="translate(901.265625 0)"/>
     <use xlink:href="#DejaVuSans-Bold-52" transform="translate(935.546875 0)"/>
     <use xlink:href="#DejaVuSans-Bold-51" transform="translate(1004.25 0)"/>
     <use xlink:href="#DejaVuSans-Bold-3" transform="translate(1075.4375 0)"/>
     <use xlink:href="#DejaVuSans-Bold-54" transform="translate(1110.25 0)"/>
     <use xlink:href="#DejaVuSans-Bold-58" transform="translate(1181.828125 0)"/>
     <use xlink:href="#DejaVuSans-Bold-44" transform="translate(1253.015625 0)"/>
     <use xlink:href="#DejaVuSans-Bold-55" transform="translate(1320.5 0)"/>
     <use xlink:href="#DejaVuSans-Bold-44" transform="translate(1369.8125 0)"/>
     <use xlink:href="#DejaVuSans-Bold-51" transform="translate(1437.296875 0)"/>
     <use xlink:href="#DejaVuSans-Bold-57" transform="translate(1508.484375 0)"/>
     <use xlink:href="#DejaVuSans-Bold-4c" transform="translate(1556.28125 0)"/>
     <use xlink:href="#DejaVuSans-Bold-51" transform="translate(1590.5625 0)"/>
     <use xlink:href="#DejaVuSans-Bold-48" transform="translate(1661.75 0)"/>
     <use xlink:href="#DejaVuSans-Bold-47" transform="translate(1729.578125 0)"/>
     <use xlink:href="#DejaVuSans-Bold-f" transform="translate(1801.15625 0)"/>
     <use xlink:href="#DejaVuSans-Bold-3" transform="translate(1839.140625 0)"/>
     <use xlink:href="#DejaVuSans-Bold-51" transform="translate(1873.953125 0)"/>
     <use xlink:href="#DejaVuSans-Bold-52" transform="translate(1945.140625 0)"/>
     <use xlink:href="#DejaVuSans-Bold-3" transform="translate(2013.84375 0)"/>
     <use xlink:href="#DejaVuSans-Bold-51" transform="translate(2048.65625 0)"/>
     <use xlink:href="#DejaVuSans-Bold-48" transform="translate(2119.84375 0)"/>
     <use xlink:href="#DejaVuSans-Bold-5a" transform="translate(2187.671875 0)"/>
     <use xlink:href="#DejaVuSans-Bold-3" transform="translate(2280.0625 0)"/>
     <use xlink:href="#DejaVuSans-Bold-34f" transform="translate(2314.875 0)"/>
     <use xlink:href="#DejaVuSans-Bold-10" transform="translate(2378.15625 0)"/>
     <use xlink:href="#DejaVuSans-Bold-49" transform="translate(2419.65625 0)"/>
     <use xlink:href="#DejaVuSans-Bold-55" transform="translate(2463.15625 0)"/>
     <use xlink:href="#DejaVuSans-Bold-48" transform="translate(2512.46875 0)"/>
     <use xlink:href="#DejaVuSans-Bold-48" transform="translate(2580.296875 0)"/>
     <use xlink:href="#DejaVuSans-Bold-3" transform="translate(2648.125 0)"/>
     <use xlink:href="#DejaVuSans-Bold-46" transform="translate(2682.9375 0)"/>
     <use xlink:href="#DejaVuSans-Bold-52" transform="translate(2742.21875 0)"/>
     <use xlink:href="#DejaVuSans-Bold-51" transform="translate(2810.921875 0)"/>
     <use xlink:href="#DejaVuSans-Bold-56" transform="translate(2882.109375 0)"/>
     <use xlink:href="#DejaVuSans-Bold-48" transform="translate(2941.625 0)"/>
     <use xlink:href="#DejaVuSans-Bold-54" transform="translate(3009.453125 0)"/>
     <use xlink:href="#DejaVuSans-Bold-58" transform="translate(3081.03125 0)"/>
     <use xlink:href="#DejaVuSans-Bold-48" transform="translate(3152.21875 0)"/>
     <use xlink:href="#DejaVuSans-Bold-51" transform="translate(3220.046875 0)"/>
     <use xlink:href="#DejaVuSans-Bold-46" transform="translate(3291.234375 0)"/>
     <use xlink:href="#DejaVuSans-Bold-48" transform="translate(3350.515625 0)"/>
     <use xlink:href="#DejaVuSans-Bold-56" transform="translate(3418.34375 0)"/>
     <use xlink:href="#DejaVuSans-Bold-c" transform="translate(3477.859375 0)"/>
    </g>
    <!-- 0 (flatline) -->
    <g style="fill: #26405e" transform="translate(601.972877 198.204542) scale(0.085 -0.085)">
     <defs>
      <path id="DejaVuSans-Bold-13" d="M 2944 2338 
Q 2944 3213 2780 3570 
Q 2616 3928 2228 3928 
Q 1841 3928 1675 3570 
Q 1509 3213 1509 2338 
Q 1509 1453 1675 1090 
Q 1841 728 2228 728 
Q 2613 728 2778 1090 
Q 2944 1453 2944 2338 
z
M 4147 2328 
Q 4147 1169 3647 539 
Q 3147 -91 2228 -91 
Q 1306 -91 806 539 
Q 306 1169 306 2328 
Q 306 3491 806 4120 
Q 1306 4750 2228 4750 
Q 3147 4750 3647 4120 
Q 4147 3491 4147 2328 
z
" transform="scale(0.015625)"/>
      <path id="DejaVuSans-Bold-13ac" d="M 1984 4863 
L 4206 4863 
L 4206 0 
L 3078 0 
L 3078 4128 
L 2222 4128 
Q 1984 4128 1890 4042 
Q 1797 3956 1797 3744 
L 1797 3500 
L 2675 3500 
L 2675 2700 
L 1797 2700 
L 1797 0 
L 678 0 
L 678 2700 
L 122 2700 
L 122 3500 
L 678 3500 
L 678 3744 
Q 678 4316 997 4589 
Q 1316 4863 1984 4863 
z
" transform="scale(0.015625)"/>
     </defs>
     <use xlink:href="#DejaVuSans-Bold-13"/>
     <use xlink:href="#DejaVuSans-Bold-3" transform="translate(69.578125 0)"/>
     <use xlink:href="#DejaVuSans-Bold-b" transform="translate(104.390625 0)"/>
     <use xlink:href="#DejaVuSans-Bold-13ac" transform="translate(150.09375 0)"/>
     <use xlink:href="#DejaVuSans-Bold-44" transform="translate(224.21875 0)"/>
     <use xlink:href="#DejaVuSans-Bold-57" transform="translate(291.703125 0)"/>
     <use xlink:href="#DejaVuSans-Bold-4f" transform="translate(339.5 0)"/>
     <use xlink:href="#DejaVuSans-Bold-4c" transform="translate(373.78125 0)"/>
     <use xlink:href="#DejaVuSans-Bold-51" transform="translate(408.0625 0)"/>
     <use xlink:href="#DejaVuSans-Bold-48" transform="translate(479.25 0)"/>
     <use xlink:href="#DejaVuSans-Bold-c" transform="translate(547.078125 0)"/>
    </g>
   </g>
   <g id="text_13">
    <!-- GL (Gödel-Löb provability logic) -->
    <g style="fill: #1a1a1a" transform="translate(41.825115 261.39202) scale(0.085 -0.085)">
     <defs>
      <path id="DejaVuSans-2a" d="M 3809 666 
L 3809 1919 
L 2778 1919 
L 2778 2438 
L 4434 2438 
L 4434 434 
Q 4069 175 3628 42 
Q 3188 -91 2688 -91 
Q 1594 -91 976 548 
Q 359 1188 359 2328 
Q 359 3472 976 4111 
Q 1594 4750 2688 4750 
Q 3144 4750 3555 4637 
Q 3966 4525 4313 4306 
L 4313 3634 
Q 3963 3931 3569 4081 
Q 3175 4231 2741 4231 
Q 1884 4231 1454 3753 
Q 1025 3275 1025 2328 
Q 1025 1384 1454 906 
Q 1884 428 2741 428 
Q 3075 428 3337 486 
Q 3600 544 3809 666 
z
" transform="scale(0.015625)"/>
      <path id="DejaVuSans-b8" d="M 1959 3097 
Q 1497 3097 1228 2736 
Q 959 2375 959 1747 
Q 959 1119 1226 758 
Q 1494 397 1959 397 
Q 2419 397 2687 759 
Q 2956 1122 2956 1747 
Q 2956 2369 2687 2733 
Q 2419 3097 1959 3097 
z
M 1959 3584 
Q 2709 3584 3137 3096 
Q 3566 2609 3566 1747 
Q 3566 888 3137 398 
Q 2709 -91 1959 -91 
Q 1206 -91 779 398 
Q 353 888 353 1747 
Q 353 2609 779 3096 
Q 1206 3584 1959 3584 
z
M 2253 4850 
L 2887 4850 
L 2887 4219 
L 2253 4219 
L 2253 4850 
z
M 1031 4850 
L 1665 4850 
L 1665 4219 
L 1031 4219 
L 1031 4850 
z
" transform="scale(0.015625)"/>
      <path id="DejaVuSans-45" d="M 3116 1747 
Q 3116 2381 2855 2742 
Q 2594 3103 2138 3103 
Q 1681 3103 1420 2742 
Q 1159 2381 1159 1747 
Q 1159 1113 1420 752 
Q 1681 391 2138 391 
Q 2594 391 2855 752 
Q 3116 1113 3116 1747 
z
M 1159 2969 
Q 1341 3281 1617 3432 
Q 1894 3584 2278 3584 
Q 2916 3584 3314 3078 
Q 3713 2572 3713 1747 
Q 3713 922 3314 415 
Q 2916 -91 2278 -91 
Q 1894 -91 1617 61 
Q 1341 213 1159 525 
L 1159 0 
L 581 0 
L 581 4863 
L 1159 4863 
L 1159 2969 
z
" transform="scale(0.015625)"/>
     </defs>
     <use xlink:href="#DejaVuSans-2a"/>
     <use xlink:href="#DejaVuSans-2f" transform="translate(77.484375 0)"/>
     <use xlink:href="#DejaVuSans-3" transform="translate(133.203125 0)"/>
     <use xlink:href="#DejaVuSans-b" transform="translate(164.984375 0)"/>
     <use xlink:href="#DejaVuSans-2a" transform="translate(204 0)"/>
     <use xlink:href="#DejaVuSans-b8" transform="translate(281.484375 0)"/>
     <use xlink:href="#DejaVuSans-47" transform="translate(342.671875 0)"/>
     <use xlink:href="#DejaVuSans-48" transform="translate(406.15625 0)"/>
     <use xlink:href="#DejaVuSans-4f" transform="translate(467.6875 0)"/>
     <use xlink:href="#DejaVuSans-10" transform="translate(495.46875 0)"/>
     <use xlink:href="#DejaVuSans-2f" transform="translate(531.546875 0)"/>
     <use xlink:href="#DejaVuSans-b8" transform="translate(585.515625 0)"/>
     <use xlink:href="#DejaVuSans-45" transform="translate(646.703125 0)"/>
     <use xlink:href="#DejaVuSans-3" transform="translate(710.1875 0)"/>
     <use xlink:href="#DejaVuSans-53" transform="translate(741.96875 0)"/>
     <use xlink:href="#DejaVuSans-55" transform="translate(805.453125 0)"/>
     <use xlink:href="#DejaVuSans-52" transform="translate(844.359375 0)"/>
     <use xlink:href="#DejaVuSans-59" transform="translate(905.546875 0)"/>
     <use xlink:href="#DejaVuSans-44" transform="translate(964.734375 0)"/>
     <use xlink:href="#DejaVuSans-45" transform="translate(1026.015625 0)"/>
     <use xlink:href="#DejaVuSans-4c" transform="translate(1089.5 0)"/>
     <use xlink:href="#DejaVuSans-4f" transform="translate(1117.28125 0)"/>
     <use xlink:href="#DejaVuSans-4c" transform="translate(1145.0625 0)"/>
     <use xlink:href="#DejaVuSans-57" transform="translate(1172.84375 0)"/>
     <use xlink:href="#DejaVuSans-5c" transform="translate(1212.046875 0)"/>
     <use xlink:href="#DejaVuSans-3" transform="translate(1271.234375 0)"/>
     <use xlink:href="#DejaVuSans-4f" transform="translate(1303.015625 0)"/>
     <use xlink:href="#DejaVuSans-52" transform="translate(1330.796875 0)"/>
     <use xlink:href="#DejaVuSans-4a" transform="translate(1391.984375 0)"/>
     <use xlink:href="#DejaVuSans-4c" transform="translate(1455.46875 0)"/>
     <use xlink:href="#DejaVuSans-46" transform="translate(1483.25 0)"/>
     <use xlink:href="#DejaVuSans-c" transform="translate(1538.234375 0)"/>
    </g>
   </g>
   <g id="text_14">
    <!-- resolved by ascent -->
    <g style="fill: #1a1a1a" transform="translate(229.816654 261.39202) scale(0.085 -0.085)">
     <use xlink:href="#DejaVuSans-55"/>
     <use xlink:href="#DejaVuSans-48" transform="translate(38.90625 0)"/>
     <use xlink:href="#DejaVuSans-56" transform="translate(100.4375 0)"/>
     <use xlink:href="#DejaVuSans-52" transform="translate(152.53125 0)"/>
     <use xlink:href="#DejaVuSans-4f" transform="translate(213.71875 0)"/>
     <use xlink:href="#DejaVuSans-59" transform="translate(241.5 0)"/>
     <use xlink:href="#DejaVuSans-48" transform="translate(300.6875 0)"/>
     <use xlink:href="#DejaVuSans-47" transform="translate(362.21875 0)"/>
     <use xlink:href="#DejaVuSans-3" transform="translate(425.703125 0)"/>
     <use xlink:href="#DejaVuSans-45" transform="translate(457.484375 0)"/>
     <use xlink:href="#DejaVuSans-5c" transform="translate(520.96875 0)"/>
     <use xlink:href="#DejaVuSans-3" transform="translate(580.15625 0)"/>
     <use xlink:href="#DejaVuSans-44" transform="translate(611.9375 0)"/>
     <use xlink:href="#DejaVuSans-56" transform="translate(673.21875 0)"/>
     <use xlink:href="#DejaVuSans-46" transform="translate(725.3125 0)"/>
     <use xlink:href="#DejaVuSans-48" transform="translate(780.296875 0)"/>
     <use xlink:href="#DejaVuSans-51" transform="translate(841.828125 0)"/>
     <use xlink:href="#DejaVuSans-57" transform="translate(905.203125 0)"/>
    </g>
   </g>
   <g id="text_15">
    <!-- a strictly higher consistency level (Con_n ⊊ Con_{n+1}) -->
    <g style="fill: #1a1a1a" transform="translate(317.974658 261.39202) scale(0.085 -0.085)">
     <defs>
      <path id="DejaVuSans-42" d="M 3263 -1063 
L 3263 -1509 
L -63 -1509 
L -63 -1063 
L 3263 -1063 
z
" transform="scale(0.015625)"/>
      <path id="DejaVuSans-d14" d="M 2213 0 
L 756 0 
L 756 469 
L 2563 469 
L 2916 938 
L 3291 656 
L 3150 469 
L 4684 469 
L 4684 0 
L 2800 0 
L 2447 -469 
L 2072 -188 
L 2213 0 
z
M 4684 941 
L 2088 941 
Q 1459 941 1028 1375 
Q 594 1809 594 2434 
Q 594 3053 1028 3494 
Q 1459 3928 2084 3928 
L 4684 3928 
L 4684 3459 
L 2084 3459 
Q 1656 3459 1359 3159 
Q 1063 2859 1063 2434 
Q 1063 2003 1359 1709 
Q 1659 1409 2084 1409 
L 4684 1409 
L 4684 941 
z
" transform="scale(0.015625)"/>
      <path id="DejaVuSans-5e" d="M 3272 -594 
L 3272 -1044 
L 3078 -1044 
Q 2300 -1044 2036 -812 
Q 1772 -581 1772 109 
L 1772 856 
Q 1772 1328 1603 1509 
Q 1434 1691 991 1691 
L 800 1691 
L 800 2138 
L 991 2138 
Q 1438 2138 1605 2317 
Q 1772 2497 1772 2963 
L 1772 3713 
Q 1772 4403 2036 4633 
Q 2300 4863 3078 4863 
L 3272 4863 
L 3272 4416 
L 3059 4416 
Q 2619 4416 2484 4278 
Q 2350 4141 2350 3700 
L 2350 2925 
Q 2350 2434 2208 2212 
Q 2066 1991 1722 1913 
Q 2069 1828 2209 1606 
Q 2350 1384 2350 897 
L 2350 122 
Q 2350 -319 2484 -456 
Q 2619 -594 3059 -594 
L 3272 -594 
z
" transform="scale(0.015625)"/>
      <path id="DejaVuSans-e" d="M 2944 4013 
L 2944 2272 
L 4684 2272 
L 4684 1741 
L 2944 1741 
L 2944 0 
L 2419 0 
L 2419 1741 
L 678 1741 
L 678 2272 
L 2419 2272 
L 2419 4013 
L 2944 4013 
z
" transform="scale(0.015625)"/>
      <path id="DejaVuSans-14" d="M 794 531 
L 1825 531 
L 1825 4091 
L 703 3866 
L 703 4441 
L 1819 4666 
L 2450 4666 
L 2450 531 
L 3481 531 
L 3481 0 
L 794 0 
L 794 531 
z
" transform="scale(0.015625)"/>
      <path id="DejaVuSans-60" d="M 800 -594 
L 1019 -594 
Q 1456 -594 1589 -459 
Q 1722 -325 1722 122 
L 1722 897 
Q 1722 1384 1862 1606 
Q 2003 1828 2350 1913 
Q 2003 1991 1862 2212 
Q 1722 2434 1722 2925 
L 1722 3700 
Q 1722 4144 1589 4280 
Q 1456 4416 1019 4416 
L 800 4416 
L 800 4863 
L 997 4863 
Q 1775 4863 2036 4633 
Q 2297 4403 2297 3713 
L 2297 2963 
Q 2297 2497 2465 2317 
Q 2634 2138 3078 2138 
L 3272 2138 
L 3272 1691 
L 3078 1691 
Q 2634 1691 2465 1509 
Q 2297 1328 2297 856 
L 2297 109 
Q 2297 -581 2036 -812 
Q 1775 -1044 997 -1044 
L 800 -1044 
L 800 -594 
z
" transform="scale(0.015625)"/>
     </defs>
     <use xlink:href="#DejaVuSans-44"/>
     <use xlink:href="#DejaVuSans-3" transform="translate(61.28125 0)"/>
     <use xlink:href="#DejaVuSans-56" transform="translate(93.0625 0)"/>
     <use xlink:href="#DejaVuSans-57" transform="translate(145.15625 0)"/>
     <use xlink:href="#DejaVuSans-55" transform="translate(184.359375 0)"/>
     <use xlink:href="#DejaVuSans-4c" transform="translate(225.46875 0)"/>
     <use xlink:href="#DejaVuSans-46" transform="translate(253.25 0)"/>
     <use xlink:href="#DejaVuSans-57" transform="translate(308.234375 0)"/>
     <use xlink:href="#DejaVuSans-4f" transform="translate(347.4375 0)"/>
     <use xlink:href="#DejaVuSans-5c" transform="translate(375.21875 0)"/>
     <use xlink:href="#DejaVuSans-3" transform="translate(434.40625 0)"/>
     <use xlink:href="#DejaVuSans-4b" transform="translate(466.1875 0)"/>
     <use xlink:href="#DejaVuSans-4c" transform="translate(529.5625 0)"/>
     <use xlink:href="#DejaVuSans-4a" transform="translate(557.34375 0)"/>
     <use xlink:href="#DejaVuSans-4b" transform="translate(620.828125 0)"/>
     <use xlink:href="#DejaVuSans-48" transform="translate(684.203125 0)"/>
     <use xlink:href="#DejaVuSans-55" transform="translate(745.734375 0)"/>
     <use xlink:href="#DejaVuSans-3" transform="translate(786.84375 0)"/>
     <use xlink:href="#DejaVuSans-46" transform="translate(818.625 0)"/>
     <use xlink:href="#DejaVuSans-52" transform="translate(873.609375 0)"/>
     <use xlink:href="#DejaVuSans-51" transform="translate(934.796875 0)"/>
     <use xlink:href="#DejaVuSans-56" transform="translate(998.171875 0)"/>
     <use xlink:href="#DejaVuSans-4c" transform="translate(1050.265625 0)"/>
     <use xlink:href="#DejaVuSans-56" transform="translate(1078.046875 0)"/>
     <use xlink:href="#DejaVuSans-57" transform="translate(1130.140625 0)"/>
     <use xlink:href="#DejaVuSans-48" transform="translate(1169.34375 0)"/>
     <use xlink:href="#DejaVuSans-51" transform="translate(1230.875 0)"/>
     <use xlink:href="#DejaVuSans-46" transform="translate(1294.25 0)"/>
     <use xlink:href="#DejaVuSans-5c" transform="translate(1349.234375 0)"/>
     <use xlink:href="#DejaVuSans-3" transform="translate(1408.421875 0)"/>
     <use xlink:href="#DejaVuSans-4f" transform="translate(1440.203125 0)"/>
     <use xlink:href="#DejaVuSans-48" transform="translate(1467.984375 0)"/>
     <use xlink:href="#DejaVuSans-59" transform="translate(1529.515625 0)"/>
     <use xlink:href="#DejaVuSans-48" transform="translate(1588.703125 0)"/>
     <use xlink:href="#DejaVuSans-4f" transform="translate(1650.234375 0)"/>
     <use xlink:href="#DejaVuSans-3" transform="translate(1678.015625 0)"/>
     <use xlink:href="#DejaVuSans-b" transform="translate(1709.796875 0)"/>
     <use xlink:href="#DejaVuSans-26" transform="translate(1748.8125 0)"/>
     <use xlink:href="#DejaVuSans-52" transform="translate(1818.640625 0)"/>
     <use xlink:href="#DejaVuSans-51" transform="translate(1879.828125 0)"/>
     <use xlink:href="#DejaVuSans-42" transform="translate(1943.203125 0)"/>
     <use xlink:href="#DejaVuSans-51" transform="translate(1993.203125 0)"/>
     <use xlink:href="#DejaVuSans-3" transform="translate(2056.578125 0)"/>
     <use xlink:href="#DejaVuSans-d14" transform="translate(2088.359375 0)"/>
     <use xlink:href="#DejaVuSans-3" transform="translate(2172.15625 0)"/>
     <use xlink:href="#DejaVuSans-26" transform="translate(2203.9375 0)"/>
     <use xlink:href="#DejaVuSans-52" transform="translate(2273.765625 0)"/>
     <use xlink:href="#DejaVuSans-51" transform="translate(2334.953125 0)"/>
     <use xlink:href="#DejaVuSans-42" transform="translate(2398.328125 0)"/>
     <use xlink:href="#DejaVuSans-5e" transform="translate(2448.328125 0)"/>
     <use xlink:href="#DejaVuSans-51" transform="translate(2511.953125 0)"/>
     <use xlink:href="#DejaVuSans-e" transform="translate(2575.328125 0)"/>
     <use xlink:href="#DejaVuSans-14" transform="translate(2659.125 0)"/>
     <use xlink:href="#DejaVuSans-60" transform="translate(2722.75 0)"/>
     <use xlink:href="#DejaVuSans-c" transform="translate(2786.375 0)"/>
    </g>
   </g>
   <g id="text_16">
    <!-- unbounded (each stage requires a strictly deeper frame; linear -->
    <g style="fill: #26405e" transform="translate(475.499517 251.19036) scale(0.085 -0.085)">
     <defs>
      <path id="DejaVuSans-Bold-53" d="M 1656 506 
L 1656 -1331 
L 538 -1331 
L 538 3500 
L 1656 3500 
L 1656 2988 
Q 1888 3294 2169 3439 
Q 2450 3584 2816 3584 
Q 3463 3584 3878 3070 
Q 4294 2556 4294 1747 
Q 4294 938 3878 423 
Q 3463 -91 2816 -91 
Q 2450 -91 2169 54 
Q 1888 200 1656 506 
z
M 2400 2772 
Q 2041 2772 1848 2508 
Q 1656 2244 1656 1747 
Q 1656 1250 1848 986 
Q 2041 722 2400 722 
Q 2759 722 2948 984 
Q 3138 1247 3138 1747 
Q 3138 2247 2948 2509 
Q 2759 2772 2400 2772 
z
" transform="scale(0.015625)"/>
      <path id="DejaVuSans-Bold-1e" d="M 716 1209 
L 1844 1209 
L 1844 256 
L 1069 -909 
L 403 -909 
L 716 256 
L 716 1209 
z
M 716 3500 
L 1844 3500 
L 1844 2291 
L 716 2291 
L 716 3500 
z
" transform="scale(0.015625)"/>
     </defs>
     <use xlink:href="#DejaVuSans-Bold-58"/>
     <use xlink:href="#DejaVuSans-Bold-51" transform="translate(71.1875 0)"/>
     <use xlink:href="#DejaVuSans-Bold-45" transform="translate(142.375 0)"/>
     <use xlink:href="#DejaVuSans-Bold-52" transform="translate(213.953125 0)"/>
     <use xlink:href="#DejaVuSans-Bold-58" transform="translate(282.65625 0)"/>
     <use xlink:href="#DejaVuSans-Bold-51" transform="translate(353.84375 0)"/>
     <use xlink:href="#DejaVuSans-Bold-47" transform="translate(425.03125 0)"/>
     <use xlink:href="#DejaVuSans-Bold-48" transform="translate(496.609375 0)"/>
     <use xlink:href="#DejaVuSans-Bold-47" transform="translate(564.4375 0)"/>
     <use xlink:href="#DejaVuSans-Bold-3" transform="translate(636.015625 0)"/>
     <use xlink:href="#DejaVuSans-Bold-b" transform="translate(670.828125 0)"/>
     <use xlink:href="#DejaVuSans-Bold-48" transform="translate(716.53125 0)"/>
     <use xlink:href="#DejaVuSans-Bold-44" transform="translate(784.359375 0)"/>
     <use xlink:href="#DejaVuSans-Bold-46" transform="translate(851.84375 0)"/>
     <use xlink:href="#DejaVuSans-Bold-4b" transform="translate(911.125 0)"/>
     <use xlink:href="#DejaVuSans-Bold-3" transform="translate(982.3125 0)"/>
     <use xlink:href="#DejaVuSans-Bold-56" transform="translate(1017.125 0)"/>
     <use xlink:href="#DejaVuSans-Bold-57" transform="translate(1076.640625 0)"/>
     <use xlink:href="#DejaVuSans-Bold-44" transform="translate(1124.4375 0)"/>
     <use xlink:href="#DejaVuSans-Bold-4a" transform="translate(1191.921875 0)"/>
     <use xlink:href="#DejaVuSans-Bold-48" transform="translate(1263.5 0)"/>
     <use xlink:href="#DejaVuSans-Bold-3" transform="translate(1331.328125 0)"/>
     <use xlink:href="#DejaVuSans-Bold-55" transform="translate(1366.140625 0)"/>
     <use xlink:href="#DejaVuSans-Bold-48" transform="translate(1415.453125 0)"/>
     <use xlink:href="#DejaVuSans-Bold-54" transform="translate(1483.28125 0)"/>
     <use xlink:href="#DejaVuSans-Bold-58" transform="translate(1554.859375 0)"/>
     <use xlink:href="#DejaVuSans-Bold-4c" transform="translate(1626.046875 0)"/>
     <use xlink:href="#DejaVuSans-Bold-55" transform="translate(1660.328125 0)"/>
     <use xlink:href="#DejaVuSans-Bold-48" transform="translate(1709.640625 0)"/>
     <use xlink:href="#DejaVuSans-Bold-56" transform="translate(1777.46875 0)"/>
     <use xlink:href="#DejaVuSans-Bold-3" transform="translate(1836.984375 0)"/>
     <use xlink:href="#DejaVuSans-Bold-44" transform="translate(1871.796875 0)"/>
     <use xlink:href="#DejaVuSans-Bold-3" transform="translate(1939.28125 0)"/>
     <use xlink:href="#DejaVuSans-Bold-56" transform="translate(1974.09375 0)"/>
     <use xlink:href="#DejaVuSans-Bold-57" transform="translate(2033.609375 0)"/>
     <use xlink:href="#DejaVuSans-Bold-55" transform="translate(2081.40625 0)"/>
     <use xlink:href="#DejaVuSans-Bold-4c" transform="translate(2130.71875 0)"/>
     <use xlink:href="#DejaVuSans-Bold-46" transform="translate(2165 0)"/>
     <use xlink:href="#DejaVuSans-Bold-57" transform="translate(2224.28125 0)"/>
     <use xlink:href="#DejaVuSans-Bold-4f" transform="translate(2272.078125 0)"/>
     <use xlink:href="#DejaVuSans-Bold-5c" transform="translate(2306.359375 0)"/>
     <use xlink:href="#DejaVuSans-Bold-3" transform="translate(2371.546875 0)"/>
     <use xlink:href="#DejaVuSans-Bold-47" transform="translate(2406.359375 0)"/>
     <use xlink:href="#DejaVuSans-Bold-48" transform="translate(2477.9375 0)"/>
     <use xlink:href="#DejaVuSans-Bold-48" transform="translate(2545.765625 0)"/>
     <use xlink:href="#DejaVuSans-Bold-53" transform="translate(2613.59375 0)"/>
     <use xlink:href="#DejaVuSans-Bold-48" transform="translate(2685.171875 0)"/>
     <use xlink:href="#DejaVuSans-Bold-55" transform="translate(2753 0)"/>
     <use xlink:href="#DejaVuSans-Bold-3" transform="translate(2802.3125 0)"/>
     <use xlink:href="#DejaVuSans-Bold-49" transform="translate(2837.125 0)"/>
     <use xlink:href="#DejaVuSans-Bold-55" transform="translate(2880.625 0)"/>
     <use xlink:href="#DejaVuSans-Bold-44" transform="translate(2929.9375 0)"/>
     <use xlink:href="#DejaVuSans-Bold-50" transform="translate(2997.421875 0)"/>
     <use xlink:href="#DejaVuSans-Bold-48" transform="translate(3101.625 0)"/>
     <use xlink:href="#DejaVuSans-Bold-1e" transform="translate(3169.453125 0)"/>
     <use xlink:href="#DejaVuSans-Bold-3" transform="translate(3209.4375 0)"/>
     <use xlink:href="#DejaVuSans-Bold-4f" transform="translate(3244.25 0)"/>
     <use xlink:href="#DejaVuSans-Bold-4c" transform="translate(3278.53125 0)"/>
     <use xlink:href="#DejaVuSans-Bold-51" transform="translate(3312.8125 0)"/>
     <use xlink:href="#DejaVuSans-Bold-48" transform="translate(3384 0)"/>
     <use xlink:href="#DejaVuSans-Bold-44" transform="translate(3451.828125 0)"/>
     <use xlink:href="#DejaVuSans-Bold-55" transform="translate(3519.3125 0)"/>
    </g>
    <!-- n+2) -->
    <g style="fill: #26405e" transform="translate(615.679791 261.39202) scale(0.085 -0.085)">
     <defs>
      <path id="DejaVuSans-Bold-e" d="M 3053 4013 
L 3053 2375 
L 4684 2375 
L 4684 1638 
L 3053 1638 
L 3053 0 
L 2309 0 
L 2309 1638 
L 678 1638 
L 678 2375 
L 2309 2375 
L 2309 4013 
L 3053 4013 
z
" transform="scale(0.015625)"/>
      <path id="DejaVuSans-Bold-15" d="M 1844 884 
L 3897 884 
L 3897 0 
L 506 0 
L 506 884 
L 2209 2388 
Q 2438 2594 2547 2791 
Q 2656 2988 2656 3200 
Q 2656 3528 2436 3728 
Q 2216 3928 1850 3928 
Q 1569 3928 1234 3808 
Q 900 3688 519 3450 
L 519 4475 
Q 925 4609 1322 4679 
Q 1719 4750 2100 4750 
Q 2938 4750 3402 4381 
Q 3866 4013 3866 3353 
Q 3866 2972 3669 2642 
Q 3472 2313 2841 1759 
L 1844 884 
z
" transform="scale(0.015625)"/>
     </defs>
     <use xlink:href="#DejaVuSans-Bold-51"/>
     <use xlink:href="#DejaVuSans-Bold-e" transform="translate(71.1875 0)"/>
     <use xlink:href="#DejaVuSans-Bold-15" transform="translate(154.984375 0)"/>
     <use xlink:href="#DejaVuSans-Bold-c" transform="translate(224.5625 0)"/>
    </g>
    <!-- 2 → 3 → 4 → … → n+2 -->
    <g style="fill: #26405e" transform="translate(578.419244 271.59368) scale(0.085 -0.085)">
     <defs>
      <path id="DejaVuSans-Bold-c1c" d="M 5050 2225 
L 5050 1788 
L 3822 559 
L 3369 1013 
L 3988 1631 
L 366 1631 
L 366 2381 
L 3988 2381 
L 3369 3000 
L 3822 3453 
L 5050 2225 
z
" transform="scale(0.015625)"/>
      <path id="DejaVuSans-Bold-16" d="M 2981 2516 
Q 3453 2394 3698 2092 
Q 3944 1791 3944 1325 
Q 3944 631 3412 270 
Q 2881 -91 1863 -91 
Q 1503 -91 1142 -33 
Q 781 25 428 141 
L 428 1069 
Q 766 900 1098 814 
Q 1431 728 1753 728 
Q 2231 728 2486 893 
Q 2741 1059 2741 1369 
Q 2741 1688 2480 1852 
Q 2219 2016 1709 2016 
L 1228 2016 
L 1228 2791 
L 1734 2791 
Q 2188 2791 2409 2933 
Q 2631 3075 2631 3366 
Q 2631 3634 2415 3781 
Q 2200 3928 1806 3928 
Q 1516 3928 1219 3862 
Q 922 3797 628 3669 
L 628 4550 
Q 984 4650 1334 4700 
Q 1684 4750 2022 4750 
Q 2931 4750 3382 4451 
Q 3834 4153 3834 3553 
Q 3834 3144 3618 2883 
Q 3403 2622 2981 2516 
z
" transform="scale(0.015625)"/>
      <path id="DejaVuSans-Bold-17" d="M 2356 3675 
L 1038 1722 
L 2356 1722 
L 2356 3675 
z
M 2156 4666 
L 3494 4666 
L 3494 1722 
L 4159 1722 
L 4159 850 
L 3494 850 
L 3494 0 
L 2356 0 
L 2356 850 
L 288 850 
L 288 1881 
L 2156 4666 
z
" transform="scale(0.015625)"/>
      <path id="DejaVuSans-Bold-b08" d="M 4769 1209 
L 5894 1209 
L 5894 0 
L 4769 0 
L 4769 1209 
z
M 506 1209 
L 1631 1209 
L 1631 0 
L 506 0 
L 506 1209 
z
M 2638 1209 
L 3763 1209 
L 3763 0 
L 2638 0 
L 2638 1209 
z
" transform="scale(0.015625)"/>
     </defs>
     <use xlink:href="#DejaVuSans-Bold-15"/>
     <use xlink:href="#DejaVuSans-Bold-3" transform="translate(69.578125 0)"/>
     <use xlink:href="#DejaVuSans-Bold-c1c" transform="translate(104.390625 0)"/>
     <use xlink:href="#DejaVuSans-Bold-3" transform="translate(188.1875 0)"/>
     <use xlink:href="#DejaVuSans-Bold-16" transform="translate(223 0)"/>
     <use xlink:href="#DejaVuSans-Bold-3" transform="translate(292.578125 0)"/>
     <use xlink:href="#DejaVuSans-Bold-c1c" transform="translate(327.390625 0)"/>
     <use xlink:href="#DejaVuSans-Bold-3" transform="translate(411.1875 0)"/>
     <use xlink:href="#DejaVuSans-Bold-17" transform="translate(446 0)"/>
     <use xlink:href="#DejaVuSans-Bold-3" transform="translate(515.578125 0)"/>
     <use xlink:href="#DejaVuSans-Bold-c1c" transform="translate(550.390625 0)"/>
     <use xlink:href="#DejaVuSans-Bold-3" transform="translate(634.1875 0)"/>
     <use xlink:href="#DejaVuSans-Bold-b08" transform="translate(669 0)"/>
     <use xlink:href="#DejaVuSans-Bold-3" transform="translate(769 0)"/>
     <use xlink:href="#DejaVuSans-Bold-c1c" transform="translate(803.8125 0)"/>
     <use xlink:href="#DejaVuSans-Bold-3" transform="translate(887.609375 0)"/>
     <use xlink:href="#DejaVuSans-Bold-51" transform="translate(922.421875 0)"/>
     <use xlink:href="#DejaVuSans-Bold-e" transform="translate(993.609375 0)"/>
     <use xlink:href="#DejaVuSans-Bold-15" transform="translate(1077.40625 0)"/>
    </g>
   </g>
  </g>
  <g id="text_17">
   <!-- ONE SEED, THREE ENVIRONMENTS -->
   <g transform="translate(279.559687 13.869188) scale(0.12 -0.12)">
    <defs>
     <path id="DejaVuSans-Bold-32" d="M 2719 3878 
Q 2169 3878 1866 3472 
Q 1563 3066 1563 2328 
Q 1563 1594 1866 1187 
Q 2169 781 2719 781 
Q 3272 781 3575 1187 
Q 3878 1594 3878 2328 
Q 3878 3066 3575 3472 
Q 3272 3878 2719 3878 
z
M 2719 4750 
Q 3844 4750 4481 4106 
Q 5119 3463 5119 2328 
Q 5119 1197 4481 553 
Q 3844 -91 2719 -91 
Q 1597 -91 958 553 
Q 319 1197 319 2328 
Q 319 3463 958 4106 
Q 1597 4750 2719 4750 
z
" transform="scale(0.015625)"/>
     <path id="DejaVuSans-Bold-31" d="M 588 4666 
L 1931 4666 
L 3628 1466 
L 3628 4666 
L 4769 4666 
L 4769 0 
L 3425 0 
L 1728 3200 
L 1728 0 
L 588 0 
L 588 4666 
z
" transform="scale(0.015625)"/>
     <path id="DejaVuSans-Bold-36" d="M 3834 4519 
L 3834 3531 
Q 3450 3703 3084 3790 
Q 2719 3878 2394 3878 
Q 1963 3878 1756 3759 
Q 1550 3641 1550 3391 
Q 1550 3203 1689 3098 
Q 1828 2994 2194 2919 
L 2706 2816 
Q 3484 2659 3812 2340 
Q 4141 2022 4141 1434 
Q 4141 663 3683 286 
Q 3225 -91 2284 -91 
Q 1841 -91 1394 -6 
Q 947 78 500 244 
L 500 1259 
Q 947 1022 1364 901 
Q 1781 781 2169 781 
Q 2563 781 2772 912 
Q 2981 1044 2981 1288 
Q 2981 1506 2839 1625 
Q 2697 1744 2272 1838 
L 1806 1941 
Q 1106 2091 782 2419 
Q 459 2747 459 3303 
Q 459 4000 909 4375 
Q 1359 4750 2203 4750 
Q 2588 4750 2994 4692 
Q 3400 4634 3834 4519 
z
" transform="scale(0.015625)"/>
     <path id="DejaVuSans-Bold-27" d="M 1791 3756 
L 1791 909 
L 2222 909 
Q 2959 909 3348 1275 
Q 3738 1641 3738 2338 
Q 3738 3031 3350 3393 
Q 2963 3756 2222 3756 
L 1791 3756 
z
M 588 4666 
L 1856 4666 
Q 2919 4666 3439 4514 
Q 3959 4363 4331 4000 
Q 4659 3684 4818 3271 
Q 4978 2859 4978 2338 
Q 4978 1809 4818 1395 
Q 4659 981 4331 666 
Q 3956 303 3431 151 
Q 2906 0 1856 0 
L 588 0 
L 588 4666 
z
" transform="scale(0.015625)"/>
     <path id="DejaVuSans-Bold-37" d="M 31 4666 
L 4331 4666 
L 4331 3756 
L 2784 3756 
L 2784 0 
L 1581 0 
L 1581 3756 
L 31 3756 
L 31 4666 
z
" transform="scale(0.015625)"/>
     <path id="DejaVuSans-Bold-2b" d="M 588 4666 
L 1791 4666 
L 1791 2888 
L 3566 2888 
L 3566 4666 
L 4769 4666 
L 4769 0 
L 3566 0 
L 3566 1978 
L 1791 1978 
L 1791 0 
L 588 0 
L 588 4666 
z
" transform="scale(0.015625)"/>
     <path id="DejaVuSans-Bold-35" d="M 2297 2597 
Q 2675 2597 2839 2737 
Q 3003 2878 3003 3200 
Q 3003 3519 2839 3656 
Q 2675 3794 2297 3794 
L 1791 3794 
L 1791 2597 
L 2297 2597 
z
M 1791 1766 
L 1791 0 
L 588 0 
L 588 4666 
L 2425 4666 
Q 3347 4666 3776 4356 
Q 4206 4047 4206 3378 
Q 4206 2916 3982 2619 
Q 3759 2322 3309 2181 
Q 3556 2125 3751 1926 
Q 3947 1728 4147 1325 
L 4800 0 
L 3519 0 
L 2950 1159 
Q 2778 1509 2601 1637 
Q 2425 1766 2131 1766 
L 1791 1766 
z
" transform="scale(0.015625)"/>
     <path id="DejaVuSans-Bold-39" d="M 31 4666 
L 1241 4666 
L 2478 1222 
L 3713 4666 
L 4922 4666 
L 3194 0 
L 1759 0 
L 31 4666 
z
" transform="scale(0.015625)"/>
     <path id="DejaVuSans-Bold-2c" d="M 588 4666 
L 1791 4666 
L 1791 0 
L 588 0 
L 588 4666 
z
" transform="scale(0.015625)"/>
     <path id="DejaVuSans-Bold-30" d="M 588 4666 
L 2119 4666 
L 3181 2169 
L 4250 4666 
L 5778 4666 
L 5778 0 
L 4641 0 
L 4641 3413 
L 3566 897 
L 2803 897 
L 1728 3413 
L 1728 0 
L 588 0 
L 588 4666 
z
" transform="scale(0.015625)"/>
    </defs>
    <use xlink:href="#DejaVuSans-Bold-32"/>
    <use xlink:href="#DejaVuSans-Bold-31" transform="translate(85.015625 0)"/>
    <use xlink:href="#DejaVuSans-Bold-28" transform="translate(168.703125 0)"/>
    <use xlink:href="#DejaVuSans-Bold-3" transform="translate(237.015625 0)"/>
    <use xlink:href="#DejaVuSans-Bold-36" transform="translate(271.828125 0)"/>
    <use xlink:href="#DejaVuSans-Bold-28" transform="translate(343.84375 0)"/>
    <use xlink:href="#DejaVuSans-Bold-28" transform="translate(412.15625 0)"/>
    <use xlink:href="#DejaVuSans-Bold-27" transform="translate(480.46875 0)"/>
    <use xlink:href="#DejaVuSans-Bold-f" transform="translate(563.484375 0)"/>
    <use xlink:href="#DejaVuSans-Bold-3" transform="translate(601.46875 0)"/>
    <use xlink:href="#DejaVuSans-Bold-37" transform="translate(636.28125 0)"/>
    <use xlink:href="#DejaVuSans-Bold-2b" transform="translate(704.5 0)"/>
    <use xlink:href="#DejaVuSans-Bold-35" transform="translate(788.1875 0)"/>
    <use xlink:href="#DejaVuSans-Bold-28" transform="translate(865.1875 0)"/>
    <use xlink:href="#DejaVuSans-Bold-28" transform="translate(933.5 0)"/>
    <use xlink:href="#DejaVuSans-Bold-3" transform="translate(1001.8125 0)"/>
    <use xlink:href="#DejaVuSans-Bold-28" transform="translate(1036.625 0)"/>
    <use xlink:href="#DejaVuSans-Bold-31" transform="translate(1104.9375 0)"/>
    <use xlink:href="#DejaVuSans-Bold-39" transform="translate(1188.625 0)"/>
    <use xlink:href="#DejaVuSans-Bold-2c" transform="translate(1266.015625 0)"/>
    <use xlink:href="#DejaVuSans-Bold-35" transform="translate(1303.21875 0)"/>
    <use xlink:href="#DejaVuSans-Bold-32" transform="translate(1380.21875 0)"/>
    <use xlink:href="#DejaVuSans-Bold-31" transform="translate(1465.234375 0)"/>
    <use xlink:href="#DejaVuSans-Bold-30" transform="translate(1548.921875 0)"/>
    <use xlink:href="#DejaVuSans-Bold-28" transform="translate(1648.4375 0)"/>
    <use xlink:href="#DejaVuSans-Bold-31" transform="translate(1716.75 0)"/>
    <use xlink:href="#DejaVuSans-Bold-37" transform="translate(1800.4375 0)"/>
    <use xlink:href="#DejaVuSans-Bold-36" transform="translate(1868.65625 0)"/>
   </g>
  </g>
  <g id="text_18">
   <!-- Auto-generated from experiments/wp5/artifacts/claims.json — every cell carries a machine-checked witness. -->
   <g style="fill: #555555" transform="translate(205.066797 310.464) scale(0.07 -0.07)">
    <defs>
     <path id="DejaVuSans-24" d="M 2188 4044 
L 1331 1722 
L 3047 1722 
L 2188 4044 
z
M 1831 4666 
L 2547 4666 
L 4325 0 
L 3669 0 
L 3244 1197 
L 1141 1197 
L 716 0 
L 50 0 
L 1831 4666 
z
" transform="scale(0.015625)"/>
     <path id="DejaVuSans-12" d="M 1625 4666 
L 2156 4666 
L 531 -594 
L 0 -594 
L 1625 4666 
z
" transform="scale(0.015625)"/>
     <path id="DejaVuSans-18" d="M 691 4666 
L 3169 4666 
L 3169 4134 
L 1269 4134 
L 1269 2991 
Q 1406 3038 1543 3061 
Q 1681 3084 1819 3084 
Q 2600 3084 3056 2656 
Q 3513 2228 3513 1497 
Q 3513 744 3044 326 
Q 2575 -91 1722 -91 
Q 1428 -91 1123 -41 
Q 819 9 494 109 
L 494 744 
Q 775 591 1075 516 
Q 1375 441 1709 441 
Q 2250 441 2565 725 
Q 2881 1009 2881 1497 
Q 2881 1984 2565 2268 
Q 2250 2553 1709 2553 
Q 1456 2553 1204 2497 
Q 953 2441 691 2322 
L 691 4666 
z
" transform="scale(0.015625)"/>
     <path id="DejaVuSans-11" d="M 684 794 
L 1344 794 
L 1344 0 
L 684 0 
L 684 794 
z
" transform="scale(0.015625)"/>
     <path id="DejaVuSans-4d" d="M 603 3500 
L 1178 3500 
L 1178 -63 
Q 1178 -731 923 -1031 
Q 669 -1331 103 -1331 
L -116 -1331 
L -116 -844 
L 38 -844 
Q 366 -844 484 -692 
Q 603 -541 603 -63 
L 603 3500 
z
M 603 4863 
L 1178 4863 
L 1178 4134 
L 603 4134 
L 603 4863 
z
" transform="scale(0.015625)"/>
     <path id="DejaVuSans-af6" d="M 313 1978 
L 6088 1978 
L 6088 1528 
L 313 1528 
L 313 1978 
z
" transform="scale(0.015625)"/>
     <path id="DejaVuSans-4e" d="M 581 4863 
L 1159 4863 
L 1159 1991 
L 2875 3500 
L 3609 3500 
L 1753 1863 
L 3688 0 
L 2938 0 
L 1159 1709 
L 1159 0 
L 581 0 
L 581 4863 
z
" transform="scale(0.015625)"/>
    </defs>
    <use xlink:href="#DejaVuSans-24"/>
    <use xlink:href="#DejaVuSans-58" transform="translate(68.40625 0)"/>
    <use xlink:href="#DejaVuSans-57" transform="translate(131.78125 0)"/>
    <use xlink:href="#DejaVuSans-52" transform="translate(170.984375 0)"/>
    <use xlink:href="#DejaVuSans-10" transform="translate(234.03125 0)"/>
    <use xlink:href="#DejaVuSans-4a" transform="translate(270.109375 0)"/>
    <use xlink:href="#DejaVuSans-48" transform="translate(333.59375 0)"/>
    <use xlink:href="#DejaVuSans-51" transform="translate(395.125 0)"/>
    <use xlink:href="#DejaVuSans-48" transform="translate(458.5 0)"/>
    <use xlink:href="#DejaVuSans-55" transform="translate(520.03125 0)"/>
    <use xlink:href="#DejaVuSans-44" transform="translate(561.140625 0)"/>
    <use xlink:href="#DejaVuSans-57" transform="translate(622.421875 0)"/>
    <use xlink:href="#DejaVuSans-48" transform="translate(661.625 0)"/>
    <use xlink:href="#DejaVuSans-47" transform="translate(723.15625 0)"/>
    <use xlink:href="#DejaVuSans-3" transform="translate(786.640625 0)"/>
    <use xlink:href="#DejaVuSans-49" transform="translate(818.421875 0)"/>
    <use xlink:href="#DejaVuSans-55" transform="translate(853.625 0)"/>
    <use xlink:href="#DejaVuSans-52" transform="translate(892.53125 0)"/>
    <use xlink:href="#DejaVuSans-50" transform="translate(953.71875 0)"/>
    <use xlink:href="#DejaVuSans-3" transform="translate(1051.125 0)"/>
    <use xlink:href="#DejaVuSans-48" transform="translate(1082.90625 0)"/>
    <use xlink:href="#DejaVuSans-5b" transform="translate(1142.6875 0)"/>
    <use xlink:href="#DejaVuSans-53" transform="translate(1201.875 0)"/>
    <use xlink:href="#DejaVuSans-48" transform="translate(1265.359375 0)"/>
    <use xlink:href="#DejaVuSans-55" transform="translate(1326.890625 0)"/>
    <use xlink:href="#DejaVuSans-4c" transform="translate(1368 0)"/>
    <use xlink:href="#DejaVuSans-50" transform="translate(1395.78125 0)"/>
    <use xlink:href="#DejaVuSans-48" transform="translate(1493.1875 0)"/>
    <use xlink:href="#DejaVuSans-51" transform="translate(1554.71875 0)"/>
    <use xlink:href="#DejaVuSans-57" transform="translate(1618.09375 0)"/>
    <use xlink:href="#DejaVuSans-56" transform="translate(1657.296875 0)"/>
    <use xlink:href="#DejaVuSans-12" transform="translate(1709.390625 0)"/>
    <use xlink:href="#DejaVuSans-5a" transform="translate(1743.078125 0)"/>
    <use xlink:href="#DejaVuSans-53" transform="translate(1824.859375 0)"/>
    <use xlink:href="#DejaVuSans-18" transform="translate(1888.34375 0)"/>
    <use xlink:href="#DejaVuSans-12" transform="translate(1951.96875 0)"/>
    <use xlink:href="#DejaVuSans-44" transform="translate(1985.65625 0)"/>
    <use xlink:href="#DejaVuSans-55" transform="translate(2046.9375 0)"/>
    <use xlink:href="#DejaVuSans-57" transform="translate(2088.046875 0)"/>
    <use xlink:href="#DejaVuSans-4c" transform="translate(2127.25 0)"/>
    <use xlink:href="#DejaVuSans-49" transform="translate(2155.03125 0)"/>
    <use xlink:href="#DejaVuSans-44" transform="translate(2190.234375 0)"/>
    <use xlink:href="#DejaVuSans-46" transform="translate(2251.515625 0)"/>
    <use xlink:href="#DejaVuSans-57" transform="translate(2306.5 0)"/>
    <use xlink:href="#DejaVuSans-56" transform="translate(2345.703125 0)"/>
    <use xlink:href="#DejaVuSans-12" transform="translate(2397.796875 0)"/>
    <use xlink:href="#DejaVuSans-46" transform="translate(2431.484375 0)"/>
    <use xlink:href="#DejaVuSans-4f" transform="translate(2486.46875 0)"/>
    <use xlink:href="#DejaVuSans-44" transform="translate(2514.25 0)"/>
    <use xlink:href="#DejaVuSans-4c" transform="translate(2575.53125 0)"/>
    <use xlink:href="#DejaVuSans-50" transform="translate(2603.3125 0)"/>
    <use xlink:href="#DejaVuSans-56" transform="translate(2700.71875 0)"/>
    <use xlink:href="#DejaVuSans-11" transform="translate(2752.8125 0)"/>
    <use xlink:href="#DejaVuSans-4d" transform="translate(2784.59375 0)"/>
    <use xlink:href="#DejaVuSans-56" transform="translate(2812.375 0)"/>
    <use xlink:href="#DejaVuSans-52" transform="translate(2864.46875 0)"/>
    <use xlink:href="#DejaVuSans-51" transform="translate(2925.65625 0)"/>
    <use xlink:href="#DejaVuSans-3" transform="translate(2989.03125 0)"/>
    <use xlink:href="#DejaVuSans-af6" transform="translate(3020.8125 0)"/>
    <use xlink:href="#DejaVuSans-3" transform="translate(3120.8125 0)"/>
    <use xlink:href="#DejaVuSans-48" transform="translate(3152.59375 0)"/>
    <use xlink:href="#DejaVuSans-59" transform="translate(3214.125 0)"/>
    <use xlink:href="#DejaVuSans-48" transform="translate(3273.3125 0)"/>
    <use xlink:href="#DejaVuSans-55" transform="translate(3334.84375 0)"/>
    <use xlink:href="#DejaVuSans-5c" transform="translate(3375.953125 0)"/>
    <use xlink:href="#DejaVuSans-3" transform="translate(3435.140625 0)"/>
    <use xlink:href="#DejaVuSans-46" transform="translate(3466.921875 0)"/>
    <use xlink:href="#DejaVuSans-48" transform="translate(3521.90625 0)"/>
    <use xlink:href="#DejaVuSans-4f" transform="translate(3583.4375 0)"/>
    <use xlink:href="#DejaVuSans-4f" transform="translate(3611.21875 0)"/>
    <use xlink:href="#DejaVuSans-3" transform="translate(3639 0)"/>
    <use xlink:href="#DejaVuSans-46" transform="translate(3670.78125 0)"/>
    <use xlink:href="#DejaVuSans-44" transform="translate(3725.765625 0)"/>
    <use xlink:href="#DejaVuSans-55" transform="translate(3787.046875 0)"/>
    <use xlink:href="#DejaVuSans-55" transform="translate(3826.40625 0)"/>
    <use xlink:href="#DejaVuSans-4c" transform="translate(3867.515625 0)"/>
    <use xlink:href="#DejaVuSans-48" transform="translate(3895.296875 0)"/>
    <use xlink:href="#DejaVuSans-56" transform="translate(3956.828125 0)"/>
    <use xlink:href="#DejaVuSans-3" transform="translate(4008.921875 0)"/>
    <use xlink:href="#DejaVuSans-44" transform="translate(4040.703125 0)"/>
    <use xlink:href="#DejaVuSans-3" transform="translate(4101.984375 0)"/>
    <use xlink:href="#DejaVuSans-50" transform="translate(4133.765625 0)"/>
    <use xlink:href="#DejaVuSans-44" transform="translate(4231.171875 0)"/>
    <use xlink:href="#DejaVuSans-46" transform="translate(4292.453125 0)"/>
    <use xlink:href="#DejaVuSans-4b" transform="translate(4347.4375 0)"/>
    <use xlink:href="#DejaVuSans-4c" transform="translate(4410.8125 0)"/>
    <use xlink:href="#DejaVuSans-51" transform="translate(4438.59375 0)"/>
    <use xlink:href="#DejaVuSans-48" transform="translate(4501.96875 0)"/>
    <use xlink:href="#DejaVuSans-10" transform="translate(4563.5 0)"/>
    <use xlink:href="#DejaVuSans-46" transform="translate(4599.578125 0)"/>
    <use xlink:href="#DejaVuSans-4b" transform="translate(4654.5625 0)"/>
    <use xlink:href="#DejaVuSans-48" transform="translate(4717.9375 0)"/>
    <use xlink:href="#DejaVuSans-46" transform="translate(4779.46875 0)"/>
    <use xlink:href="#DejaVuSans-4e" transform="translate(4834.453125 0)"/>
    <use xlink:href="#DejaVuSans-48" transform="translate(4888.796875 0)"/>
    <use xlink:href="#DejaVuSans-47" transform="translate(4950.328125 0)"/>
    <use xlink:href="#DejaVuSans-3" transform="translate(5013.8125 0)"/>
    <use xlink:href="#DejaVuSans-5a" transform="translate(5045.59375 0)"/>
    <use xlink:href="#DejaVuSans-4c" transform="translate(5127.375 0)"/>
    <use xlink:href="#DejaVuSans-57" transform="translate(5155.15625 0)"/>
    <use xlink:href="#DejaVuSans-51" transform="translate(5194.359375 0)"/>
    <use xlink:href="#DejaVuSans-48" transform="translate(5257.734375 0)"/>
    <use xlink:href="#DejaVuSans-56" transform="translate(5319.265625 0)"/>
    <use xlink:href="#DejaVuSans-56" transform="translate(5371.359375 0)"/>
    <use xlink:href="#DejaVuSans-11" transform="translate(5423.453125 0)"/>
   </g>
  </g>
 </g>
 <defs>
  <clipPath id="p1af17f7f89">
   <rect x="10.8" y="49.44" width="700.416" height="243.888"/>
  </clipPath>
 </defs>
</svg>
